<svg width="658" height="618" viewBox="0 0 658 618" fill="none" xmlns="http://www.w3.org/2000/svg">
<rect x="0.5" y="0.5" width="657" height="617" rx="24.5" fill="#0C0C0C" stroke="#393939"/>
<rect x="20.5" y="504.146" width="616" height="81.7244" rx="19.5" fill="white" stroke="#393939"/>
<path d="M307.258 552.595V538.503H309.465L317.18 549.392L315.295 548.249H316.506V538.503H318.947V552.595H316.76L309.025 541.687L310.92 542.829H309.699V552.595H307.258ZM326.506 552.81C325.458 552.81 324.553 552.588 323.791 552.146C323.036 551.696 322.453 551.062 322.043 550.241C321.639 549.421 321.438 548.448 321.438 547.321V547.312C321.438 546.198 321.639 545.228 322.043 544.401C322.453 543.575 323.029 542.933 323.771 542.478C324.514 542.015 325.389 541.784 326.398 541.784C327.401 541.784 328.267 542.006 328.996 542.448C329.732 542.891 330.295 543.513 330.686 544.313C331.083 545.108 331.281 546.039 331.281 547.106V547.907H322.658V546.276H330.1L328.938 547.8V546.833C328.938 546.13 328.83 545.547 328.615 545.085C328.4 544.623 328.104 544.274 327.727 544.04C327.355 543.806 326.923 543.688 326.428 543.688C325.933 543.688 325.493 543.809 325.109 544.05C324.725 544.291 324.419 544.646 324.191 545.114C323.97 545.583 323.859 546.156 323.859 546.833V547.8C323.859 548.451 323.967 549.007 324.182 549.47C324.403 549.932 324.715 550.287 325.119 550.534C325.529 550.782 326.011 550.905 326.564 550.905C326.994 550.905 327.365 550.843 327.678 550.72C327.99 550.59 328.244 550.433 328.439 550.251C328.635 550.062 328.771 549.88 328.85 549.704L328.879 549.636H331.174L331.154 549.724C331.07 550.082 330.913 550.443 330.686 550.808C330.458 551.166 330.155 551.498 329.777 551.804C329.4 552.103 328.938 552.347 328.391 552.536C327.85 552.718 327.222 552.81 326.506 552.81ZM332.365 552.595L335.793 547.331L332.355 541.999H335.139L337.248 545.681H337.395L339.494 541.999H342.15L338.732 547.233L342.17 552.595H339.455L337.287 548.884H337.141L334.963 552.595H332.365ZM348.225 552.683C347.04 552.683 346.177 552.458 345.637 552.009C345.103 551.553 344.836 550.804 344.836 549.763V543.874H343.225V541.999H344.836V539.372H347.307V541.999H349.475V543.874H347.307V549.284C347.307 549.805 347.417 550.183 347.639 550.417C347.867 550.645 348.225 550.759 348.713 550.759C348.869 550.759 349.003 550.756 349.113 550.749C349.23 550.736 349.351 550.726 349.475 550.72V552.575C349.312 552.601 349.123 552.624 348.908 552.644C348.693 552.67 348.465 552.683 348.225 552.683Z" fill="black"/>
</svg>
