<svg width="618" height="124" viewBox="0 0 618 124" fill="none" xmlns="http://www.w3.org/2000/svg">
<rect x="0.5" y="0.5" width="617" height="123" rx="19.5" fill="#0B0B0B" stroke="#393939" stroke-dasharray="16 16"/>
<path d="M19.4194 73.6611C17.2791 73.6611 16.209 72.9246 16.209 71.4517C16.209 70.5972 16.4653 69.7142 16.978 68.8027C17.4907 67.8831 18.2191 67.0327 19.1631 66.2515C20.1152 65.4702 21.2505 64.8395 22.5688 64.3594C23.8953 63.8711 25.3683 63.627 26.9878 63.627C28.6154 63.627 30.0884 63.8711 31.4067 64.3594C32.7332 64.8395 33.8685 65.4702 34.8125 66.2515C35.7646 67.0327 36.4971 67.8831 37.0098 68.8027C37.5225 69.7142 37.7788 70.5972 37.7788 71.4517C37.7788 72.9246 36.7087 73.6611 34.5684 73.6611H19.4194ZM19.1509 71.3418H34.8369C34.9671 71.3418 35.0566 71.3174 35.1055 71.2686C35.1624 71.2279 35.1909 71.1546 35.1909 71.0488C35.1909 70.6012 35.0078 70.0885 34.6416 69.5107C34.2835 68.9329 33.7546 68.3755 33.0547 67.8384C32.3548 67.2931 31.4963 66.8415 30.479 66.4834C29.4618 66.1253 28.298 65.9463 26.9878 65.9463C25.6857 65.9463 24.522 66.1253 23.4966 66.4834C22.4793 66.8415 21.6208 67.2931 20.9209 67.8384C20.221 68.3755 19.688 68.9329 19.3218 69.5107C18.9637 70.0885 18.7847 70.6012 18.7847 71.0488C18.7847 71.1546 18.8132 71.2279 18.8701 71.2686C18.9271 71.3174 19.0207 71.3418 19.1509 71.3418ZM26.9878 62.2598C25.995 62.2598 25.0916 61.9993 24.2778 61.4785C23.464 60.9577 22.813 60.2578 22.3247 59.3789C21.8446 58.4919 21.6045 57.5153 21.6045 56.4492C21.6045 55.3913 21.8486 54.431 22.3369 53.5684C22.8252 52.6976 23.4762 52.0059 24.29 51.4932C25.1038 50.9723 26.0031 50.7119 26.9878 50.7119C27.9888 50.7119 28.8962 50.9683 29.71 51.481C30.5238 51.9937 31.1707 52.6813 31.6509 53.5439C32.1392 54.4066 32.3833 55.3669 32.3833 56.4248C32.3833 57.499 32.1392 58.4797 31.6509 59.3667C31.1707 60.2456 30.5238 60.9495 29.71 61.4785C28.8962 61.9993 27.9888 62.2598 26.9878 62.2598ZM26.9878 59.9526C27.5412 59.9526 28.0417 59.8021 28.4893 59.501C28.945 59.1917 29.3071 58.7686 29.5757 58.2314C29.8524 57.6943 29.9907 57.0921 29.9907 56.4248C29.9907 55.7738 29.8524 55.1919 29.5757 54.6792C29.3071 54.1665 28.945 53.7637 28.4893 53.4707C28.0417 53.1696 27.5412 53.019 26.9878 53.019C26.4507 53.019 25.9543 53.1696 25.4985 53.4707C25.0509 53.7637 24.6888 54.1706 24.4121 54.6914C24.1354 55.2041 23.9971 55.786 23.9971 56.437C23.9971 57.1125 24.1354 57.7147 24.4121 58.2437C24.6888 58.7726 25.0509 59.1917 25.4985 59.501C25.9543 59.8021 26.4507 59.9526 26.9878 59.9526Z" fill="white"/>
</svg>
