<svg width="648" height="62" viewBox="0 0 648 62" fill="none" xmlns="http://www.w3.org/2000/svg">
<rect x="30.5" y="0.5" width="617" height="61" rx="19.5" fill="#0B0B0B" stroke="#393939"/>
<path d="M60.2563 42.9053C58.7101 42.9053 57.29 42.6733 55.9961 42.2095C54.7103 41.7456 53.5954 41.0742 52.6514 40.1953C51.7155 39.3164 50.9871 38.2422 50.4663 36.9727C49.9536 35.695 49.6973 34.2505 49.6973 32.6392V32.627C49.6973 31.1051 49.9455 29.7176 50.4419 28.4644C50.9465 27.2111 51.6545 26.1328 52.5659 25.2295C53.4774 24.318 54.5597 23.6182 55.813 23.1299C57.0662 22.6335 58.4497 22.3853 59.9634 22.3853C61.9002 22.3853 63.6092 22.7677 65.0903 23.5327C66.5715 24.2977 67.7271 25.38 68.5571 26.7798C69.3953 28.1714 69.8145 29.8112 69.8145 31.6992V31.7236C69.8145 33.0339 69.6313 34.1528 69.2651 35.0806C68.9071 36.0002 68.4066 36.7041 67.7637 37.1924C67.1289 37.6807 66.4006 37.9248 65.5786 37.9248C64.8218 37.9248 64.1829 37.7336 63.6621 37.3511C63.1413 36.9604 62.7669 36.4722 62.5391 35.8862L62.4658 35.7153H62.356C62.0549 36.4396 61.6154 36.9808 61.0376 37.3389C60.4598 37.6969 59.7884 37.876 59.0234 37.876C58.1852 37.876 57.4487 37.6603 56.814 37.229C56.1792 36.7896 55.6828 36.1792 55.3247 35.3979C54.9748 34.6167 54.7998 33.7012 54.7998 32.6514V32.6392C54.7998 31.6382 54.9788 30.7593 55.3369 30.0024C55.7031 29.2375 56.1995 28.6434 56.8262 28.2202C57.4609 27.7889 58.1893 27.5732 59.0112 27.5732C59.6704 27.5732 60.2686 27.7319 60.8057 28.0493C61.3428 28.3667 61.7293 28.7939 61.9653 29.3311H62.0752V27.8174H64.3091V33.75C64.3091 34.4743 64.4393 35.0236 64.6997 35.3979C64.9601 35.7723 65.306 35.9595 65.7373 35.9595C66.1279 35.9595 66.4697 35.7967 66.7627 35.4712C67.0557 35.1457 67.2835 34.6737 67.4463 34.0552C67.6172 33.4367 67.7026 32.6799 67.7026 31.7847V31.7725C67.7026 30.2344 67.3771 28.9038 66.7261 27.7808C66.075 26.6496 65.1595 25.7788 63.9795 25.1685C62.8076 24.5581 61.4323 24.2529 59.8535 24.2529C58.6816 24.2529 57.6034 24.4564 56.6187 24.8633C55.6421 25.262 54.7957 25.8358 54.0796 26.5845C53.3634 27.325 52.806 28.2121 52.4072 29.2456C52.0166 30.271 51.8213 31.4022 51.8213 32.6392V32.6636C51.8213 34.4377 52.1834 35.9473 52.9077 37.1924C53.6401 38.4375 54.6493 39.3856 55.9351 40.0366C57.2209 40.6877 58.7061 41.0132 60.3906 41.0132C60.9033 41.0132 61.4079 40.9888 61.9043 40.9399C62.4089 40.8911 62.8768 40.8219 63.3081 40.7324C63.7476 40.6429 64.1219 40.5371 64.4312 40.415V42.2949C63.8452 42.4902 63.1982 42.6408 62.4902 42.7466C61.7822 42.8524 61.0376 42.9053 60.2563 42.9053ZM59.5361 35.8252C60.2686 35.8252 60.8464 35.5444 61.2695 34.9829C61.7008 34.4214 61.9165 33.6605 61.9165 32.7002V32.6758C61.9165 31.7236 61.7008 30.9709 61.2695 30.4175C60.8382 29.8641 60.2686 29.5874 59.5605 29.5874C59.0804 29.5874 58.6694 29.7135 58.3276 29.9658C57.9858 30.21 57.7214 30.564 57.5342 31.0278C57.3551 31.4836 57.2656 32.0369 57.2656 32.688V32.7002C57.2656 33.3512 57.3551 33.9087 57.5342 34.3726C57.7214 34.8364 57.9858 35.1945 58.3276 35.4468C58.6694 35.6991 59.0723 35.8252 59.5361 35.8252Z" fill="white"/>
<path d="M90.1514 40.3174C88.6702 40.3174 87.3885 40.0448 86.3062 39.4995C85.2238 38.9543 84.3856 38.1934 83.7915 37.2168C83.2056 36.2402 82.9126 35.105 82.9126 33.811V22.3853H86.0498V33.5547C86.0498 34.3604 86.2085 35.0684 86.5259 35.6787C86.8514 36.2809 87.3193 36.7529 87.9297 37.0947C88.54 37.4284 89.2847 37.5952 90.1636 37.5952C91.0343 37.5952 91.7749 37.4284 92.3853 37.0947C92.9956 36.7529 93.4595 36.2809 93.7769 35.6787C94.0942 35.0684 94.2529 34.3604 94.2529 33.5547V22.3853H97.3901V33.811C97.3901 35.105 97.0972 36.2402 96.5112 37.2168C95.9253 38.1934 95.0911 38.9543 94.0088 39.4995C92.9346 40.0448 91.6488 40.3174 90.1514 40.3174ZM105.19 40.2563C104.059 40.2563 103.091 40.0895 102.285 39.7559C101.479 39.4222 100.849 38.9583 100.393 38.3643C99.9373 37.762 99.6647 37.0622 99.5752 36.2646L99.563 36.167H102.554L102.566 36.2769C102.696 36.814 102.977 37.2371 103.408 37.5464C103.84 37.8556 104.438 38.0103 105.203 38.0103C105.699 38.0103 106.122 37.9492 106.472 37.8271C106.83 37.6969 107.107 37.5138 107.302 37.2778C107.498 37.0418 107.595 36.7651 107.595 36.4478V36.4355C107.595 36.0449 107.461 35.7316 107.192 35.4956C106.924 35.2515 106.452 35.0521 105.776 34.8975L103.616 34.4092C102.794 34.2301 102.106 33.9779 101.553 33.6523C100.999 33.3187 100.584 32.9118 100.308 32.4316C100.031 31.9434 99.8926 31.3778 99.8926 30.7349V30.7227C99.8926 29.9251 100.108 29.2293 100.54 28.6353C100.979 28.0412 101.589 27.5773 102.371 27.2437C103.152 26.91 104.059 26.7432 105.093 26.7432C106.175 26.7432 107.099 26.9222 107.864 27.2803C108.629 27.6302 109.223 28.1063 109.646 28.7085C110.069 29.3026 110.301 29.9699 110.342 30.7104V30.8325H107.51V30.7471C107.437 30.2344 107.192 29.8153 106.777 29.4897C106.37 29.1561 105.809 28.9893 105.093 28.9893C104.653 28.9893 104.267 29.0544 103.933 29.1846C103.599 29.3148 103.343 29.4979 103.164 29.7339C102.985 29.9699 102.896 30.2466 102.896 30.564V30.5762C102.896 30.8203 102.957 31.0441 103.079 31.2476C103.201 31.4429 103.4 31.6138 103.677 31.7603C103.953 31.8986 104.316 32.0207 104.763 32.1265L106.912 32.6025C108.246 32.9036 109.202 33.335 109.78 33.8965C110.358 34.4499 110.647 35.1986 110.647 36.1426V36.1548C110.647 36.9767 110.411 37.6969 109.939 38.3154C109.475 38.9258 108.832 39.4019 108.01 39.7437C107.188 40.0854 106.248 40.2563 105.19 40.2563ZM118.423 40.2563C117.129 40.2563 116.014 39.9837 115.078 39.4385C114.142 38.8932 113.422 38.116 112.917 37.1069C112.421 36.0978 112.173 34.9056 112.173 33.5303V33.5181C112.173 32.159 112.425 30.9709 112.93 29.9536C113.434 28.9364 114.142 28.147 115.054 27.5854C115.965 27.0239 117.039 26.7432 118.276 26.7432C119.513 26.7432 120.579 27.0158 121.475 27.561C122.378 28.0981 123.074 28.859 123.562 29.8438C124.05 30.8203 124.294 31.9596 124.294 33.2617V34.2505H113.674V32.2241H122.83L121.377 34.1162V32.9443C121.377 32.0898 121.247 31.3818 120.986 30.8203C120.726 30.2507 120.364 29.8275 119.9 29.5508C119.444 29.266 118.915 29.1235 118.313 29.1235C117.711 29.1235 117.174 29.27 116.702 29.563C116.23 29.856 115.859 30.2873 115.591 30.8569C115.322 31.4185 115.188 32.1143 115.188 32.9443V34.1284C115.188 34.9178 115.322 35.5933 115.591 36.1548C115.859 36.7082 116.238 37.1354 116.726 37.4365C117.222 37.7376 117.808 37.8882 118.484 37.8882C118.997 37.8882 119.444 37.8109 119.827 37.6562C120.209 37.4935 120.522 37.29 120.767 37.0459C121.019 36.7936 121.194 36.5291 121.292 36.2524L121.316 36.1548H124.16L124.136 36.2891C124.03 36.7773 123.831 37.2575 123.538 37.7295C123.253 38.2015 122.87 38.6287 122.39 39.0112C121.918 39.3937 121.348 39.6989 120.681 39.9268C120.022 40.1465 119.269 40.2563 118.423 40.2563ZM126.394 40V26.9995H129.434V29.209H129.519C129.722 28.4359 130.089 27.8337 130.618 27.4023C131.147 26.971 131.79 26.7554 132.546 26.7554C132.75 26.7554 132.937 26.7676 133.108 26.792C133.287 26.8164 133.433 26.8449 133.547 26.8774V29.6118C133.409 29.563 133.226 29.5223 132.998 29.4897C132.778 29.4572 132.538 29.4409 132.278 29.4409C131.692 29.4409 131.183 29.5589 130.752 29.7949C130.329 30.0309 130.003 30.3768 129.775 30.8325C129.548 31.2801 129.434 31.8213 129.434 32.4561V40H126.394ZM135.256 40V26.9995H138.296V29.0381H138.381C138.715 28.3382 139.211 27.7808 139.871 27.3657C140.53 26.9507 141.348 26.7432 142.324 26.7432C143.757 26.7432 144.863 27.1745 145.645 28.0371C146.426 28.8916 146.816 30.0757 146.816 31.5894V40H143.777V32.2119C143.777 31.276 143.561 30.5599 143.13 30.0635C142.699 29.5589 142.048 29.3066 141.177 29.3066C140.591 29.3066 140.082 29.4368 139.651 29.6973C139.22 29.9577 138.886 30.3239 138.65 30.7959C138.414 31.2679 138.296 31.8213 138.296 32.4561V40H135.256ZM153.201 40.2197C152.346 40.2197 151.589 40.057 150.93 39.7314C150.279 39.3978 149.771 38.938 149.404 38.3521C149.038 37.758 148.855 37.0744 148.855 36.3013V36.2769C148.855 35.5037 149.046 34.8405 149.429 34.2871C149.819 33.7337 150.381 33.2983 151.113 32.981C151.854 32.6554 152.745 32.4601 153.787 32.395L158.743 32.0898V34.104L154.226 34.3848C153.461 34.4336 152.879 34.6126 152.48 34.9219C152.082 35.2311 151.882 35.6421 151.882 36.1548V36.1792C151.882 36.7163 152.086 37.1395 152.493 37.4487C152.9 37.7498 153.437 37.9004 154.104 37.9004C154.69 37.9004 155.215 37.7824 155.679 37.5464C156.143 37.3104 156.509 36.9889 156.777 36.582C157.046 36.167 157.18 35.7031 157.18 35.1904V31.2598C157.18 30.6087 156.973 30.096 156.558 29.7217C156.151 29.3473 155.557 29.1602 154.775 29.1602C154.059 29.1602 153.486 29.3107 153.054 29.6118C152.623 29.9048 152.354 30.2873 152.249 30.7593L152.224 30.8569H149.392L149.404 30.7227C149.478 29.9577 149.742 29.2782 150.198 28.6841C150.653 28.0819 151.276 27.6099 152.065 27.2681C152.863 26.9181 153.803 26.7432 154.885 26.7432C155.976 26.7432 156.92 26.9222 157.717 27.2803C158.515 27.6302 159.129 28.1307 159.561 28.7817C160 29.4328 160.22 30.1937 160.22 31.0645V40H157.18V38.0347H157.095C156.851 38.4823 156.533 38.8729 156.143 39.2065C155.752 39.5321 155.308 39.7843 154.812 39.9634C154.316 40.1343 153.778 40.2197 153.201 40.2197ZM162.82 40V26.9995H165.859V29.0747H165.945C166.222 28.3667 166.677 27.8011 167.312 27.3779C167.947 26.9548 168.691 26.7432 169.546 26.7432C170.148 26.7432 170.689 26.8449 171.169 27.0483C171.65 27.2518 172.061 27.5448 172.402 27.9272C172.744 28.3097 172.992 28.7736 173.147 29.3188H173.232C173.444 28.7899 173.745 28.3341 174.136 27.9517C174.535 27.5692 174.998 27.2721 175.527 27.0605C176.064 26.849 176.646 26.7432 177.273 26.7432C178.127 26.7432 178.872 26.9222 179.507 27.2803C180.142 27.6383 180.634 28.1429 180.984 28.7939C181.334 29.4368 181.509 30.1978 181.509 31.0767V40H178.469V31.8213C178.469 31.2842 178.38 30.8285 178.201 30.4541C178.022 30.0798 177.757 29.7949 177.407 29.5996C177.065 29.4043 176.642 29.3066 176.138 29.3066C175.641 29.3066 175.206 29.4206 174.832 29.6484C174.457 29.8682 174.164 30.1774 173.953 30.5762C173.749 30.9749 173.647 31.4347 173.647 31.9556V40H170.681V31.6626C170.681 31.1743 170.588 30.7552 170.4 30.4053C170.213 30.0472 169.949 29.7746 169.607 29.5874C169.265 29.4002 168.854 29.3066 168.374 29.3066C167.886 29.3066 167.45 29.4246 167.068 29.6606C166.694 29.8966 166.396 30.2222 166.177 30.6372C165.965 31.0441 165.859 31.5161 165.859 32.0532V40H162.82ZM189.785 40.2563C188.491 40.2563 187.376 39.9837 186.44 39.4385C185.505 38.8932 184.784 38.116 184.28 37.1069C183.783 36.0978 183.535 34.9056 183.535 33.5303V33.5181C183.535 32.159 183.787 30.9709 184.292 29.9536C184.797 28.9364 185.505 28.147 186.416 27.5854C187.327 27.0239 188.402 26.7432 189.639 26.7432C190.876 26.7432 191.942 27.0158 192.837 27.561C193.74 28.0981 194.436 28.859 194.924 29.8438C195.413 30.8203 195.657 31.9596 195.657 33.2617V34.2505H185.037V32.2241H194.192L192.739 34.1162V32.9443C192.739 32.0898 192.609 31.3818 192.349 30.8203C192.088 30.2507 191.726 29.8275 191.262 29.5508C190.806 29.266 190.278 29.1235 189.675 29.1235C189.073 29.1235 188.536 29.27 188.064 29.563C187.592 29.856 187.222 30.2873 186.953 30.8569C186.685 31.4185 186.55 32.1143 186.55 32.9443V34.1284C186.55 34.9178 186.685 35.5933 186.953 36.1548C187.222 36.7082 187.6 37.1354 188.088 37.4365C188.585 37.7376 189.171 37.8882 189.846 37.8882C190.359 37.8882 190.806 37.8109 191.189 37.6562C191.571 37.4935 191.885 37.29 192.129 37.0459C192.381 36.7936 192.556 36.5291 192.654 36.2524L192.678 36.1548H195.522L195.498 36.2891C195.392 36.7773 195.193 37.2575 194.9 37.7295C194.615 38.2015 194.233 38.6287 193.752 39.0112C193.28 39.3937 192.711 39.6989 192.043 39.9268C191.384 40.1465 190.632 40.2563 189.785 40.2563Z" fill="#393939"/>
</svg>
