<svg width="227" height="53" viewBox="0 0 227 53" fill="none" xmlns="http://www.w3.org/2000/svg">
<rect x="9" width="209" height="53" rx="20" fill="white"/>
<path d="M58.2754 35.3174C56.9977 35.3174 55.8462 35.1099 54.8208 34.6948C53.7954 34.2716 52.9206 33.6613 52.1963 32.8638C51.472 32.0662 50.9146 31.1019 50.5239 29.9707C50.1414 28.8314 49.9502 27.5537 49.9502 26.1377V26.1255C49.9502 24.2537 50.2879 22.6424 50.9634 21.2915C51.6388 19.9406 52.5951 18.8989 53.832 18.1665C55.0771 17.4341 56.542 17.0679 58.2266 17.0679C59.61 17.0679 60.8267 17.3161 61.8765 17.8125C62.9344 18.3008 63.797 18.9722 64.4644 19.8267C65.1317 20.673 65.5711 21.6414 65.7827 22.7319L65.8315 22.9272H62.6455L62.5967 22.793C62.2712 21.8408 61.734 21.1043 60.9854 20.5835C60.2367 20.0545 59.3211 19.79 58.2388 19.79C57.1808 19.79 56.2734 20.0423 55.5166 20.5469C54.7598 21.0433 54.1779 21.7635 53.771 22.7075C53.3641 23.6515 53.1606 24.7827 53.1606 26.1011V26.1133C53.1606 27.1224 53.2786 28.0298 53.5146 28.8354C53.7507 29.633 54.0924 30.3125 54.54 30.874C54.9958 31.4274 55.541 31.8547 56.1758 32.1558C56.8105 32.4487 57.5226 32.5952 58.312 32.5952C59.2072 32.5952 59.9925 32.4243 60.668 32.0825C61.3516 31.7407 61.8846 31.2606 62.2671 30.6421C62.6577 30.0236 62.8612 29.3034 62.8774 28.4814L62.8896 28.1885H58.5317V25.7471H65.9658V27.688C65.9658 28.8761 65.7909 29.9422 65.4409 30.8862C65.091 31.8221 64.5824 32.6237 63.915 33.291C63.2559 33.9502 62.4502 34.4548 61.498 34.8047C60.554 35.1465 59.4798 35.3174 58.2754 35.3174ZM74.0713 35.2563C72.7773 35.2563 71.6624 34.9837 70.7266 34.4385C69.7907 33.8932 69.0705 33.116 68.5659 32.1069C68.0695 31.0978 67.8213 29.9056 67.8213 28.5303V28.5181C67.8213 27.159 68.0736 25.9709 68.5781 24.9536C69.0827 23.9364 69.7907 23.147 70.7021 22.5854C71.6136 22.0239 72.6878 21.7432 73.9248 21.7432C75.1618 21.7432 76.2279 22.0158 77.123 22.561C78.0264 23.0981 78.7222 23.859 79.2104 24.8438C79.6987 25.8203 79.9429 26.9596 79.9429 28.2617V29.2505H69.3228V27.2241H78.478L77.0254 29.1162V27.9443C77.0254 27.0898 76.8952 26.3818 76.6348 25.8203C76.3743 25.2507 76.0122 24.8275 75.5483 24.5508C75.0926 24.266 74.5636 24.1235 73.9614 24.1235C73.3592 24.1235 72.8221 24.27 72.3501 24.563C71.8781 24.856 71.5078 25.2873 71.2393 25.8569C70.9707 26.4185 70.8364 27.1143 70.8364 27.9443V29.1284C70.8364 29.9178 70.9707 30.5933 71.2393 31.1548C71.5078 31.7082 71.8862 32.1354 72.3745 32.4365C72.8709 32.7376 73.4569 32.8882 74.1323 32.8882C74.645 32.8882 75.0926 32.8109 75.4751 32.6562C75.8576 32.4935 76.1709 32.29 76.415 32.0459C76.6673 31.7936 76.8423 31.5291 76.9399 31.2524L76.9644 31.1548H79.8086L79.7842 31.2891C79.6784 31.7773 79.479 32.2575 79.186 32.7295C78.9012 33.2015 78.5187 33.6287 78.0386 34.0112C77.5666 34.3937 76.9969 34.6989 76.3296 34.9268C75.6704 35.1465 74.9176 35.2563 74.0713 35.2563ZM86.9131 35.2319C85.5459 35.2319 84.5327 34.939 83.8735 34.353C83.2144 33.7671 82.8848 32.8149 82.8848 31.4966V24.3433H81.0171V21.9995H82.8848V18.728H85.9731V21.9995H88.4268V24.3433H85.9731V31.1792C85.9731 31.814 86.1115 32.2575 86.3882 32.5098C86.673 32.7539 87.0962 32.876 87.6577 32.876C87.8123 32.876 87.9507 32.8719 88.0728 32.8638C88.1948 32.8475 88.3128 32.8353 88.4268 32.8271V35.1099C88.2477 35.1424 88.028 35.1709 87.7676 35.1953C87.5072 35.2197 87.2223 35.2319 86.9131 35.2319ZM102.379 35.3174C101.028 35.3174 99.8485 35.1139 98.8394 34.707C97.8302 34.3001 97.0327 33.7183 96.4468 32.9614C95.869 32.2046 95.5435 31.3053 95.4702 30.2637L95.458 30.0806H98.4731L98.4976 30.2271C98.5789 30.7235 98.7946 31.1548 99.1445 31.521C99.4945 31.8872 99.9543 32.172 100.524 32.3755C101.094 32.5789 101.749 32.6807 102.489 32.6807C103.222 32.6807 103.856 32.5789 104.394 32.3755C104.939 32.1639 105.358 31.8709 105.651 31.4966C105.952 31.1141 106.103 30.6706 106.103 30.166V30.1538C106.103 29.4946 105.854 28.9738 105.358 28.5913C104.87 28.2007 104.056 27.8874 102.917 27.6514L101.024 27.2485C99.2829 26.8905 97.9849 26.3005 97.1304 25.4785C96.2759 24.6566 95.8486 23.5905 95.8486 22.2803V22.2681C95.8568 21.2264 96.1375 20.319 96.6909 19.5459C97.2524 18.7646 98.0256 18.1584 99.0103 17.7271C99.995 17.2876 101.118 17.0679 102.379 17.0679C103.665 17.0679 104.784 17.2795 105.736 17.7026C106.697 18.1258 107.449 18.7158 107.995 19.4727C108.548 20.2214 108.853 21.0962 108.91 22.0972L108.922 22.2925H105.919L105.895 22.146C105.822 21.6333 105.631 21.1979 105.321 20.8398C105.012 20.4818 104.605 20.2051 104.101 20.0098C103.604 19.8063 103.022 19.7046 102.355 19.7046C101.68 19.7046 101.09 19.8063 100.585 20.0098C100.08 20.2051 99.6898 20.4818 99.4131 20.8398C99.1445 21.1979 99.0103 21.617 99.0103 22.0972V22.1094C99.0103 22.7279 99.2585 23.2324 99.7549 23.623C100.251 24.0055 101.033 24.3107 102.099 24.5386L104.003 24.9292C105.224 25.1815 106.221 25.5233 106.994 25.9546C107.767 26.3859 108.336 26.9271 108.703 27.5781C109.077 28.221 109.264 28.9982 109.264 29.9097V29.9219C109.264 31.0205 108.987 31.9767 108.434 32.7905C107.881 33.5962 107.091 34.2188 106.066 34.6582C105.041 35.0977 103.812 35.3174 102.379 35.3174ZM116.332 35.2319C114.965 35.2319 113.952 34.939 113.292 34.353C112.633 33.7671 112.304 32.8149 112.304 31.4966V24.3433H110.436V21.9995H112.304V18.728H115.392V21.9995H117.846V24.3433H115.392V31.1792C115.392 31.814 115.53 32.2575 115.807 32.5098C116.092 32.7539 116.515 32.876 117.077 32.876C117.231 32.876 117.37 32.8719 117.492 32.8638C117.614 32.8475 117.732 32.8353 117.846 32.8271V35.1099C117.667 35.1424 117.447 35.1709 117.187 35.1953C116.926 35.2197 116.641 35.2319 116.332 35.2319ZM123.717 35.2197C122.863 35.2197 122.106 35.057 121.447 34.7314C120.796 34.3978 120.287 33.938 119.921 33.3521C119.555 32.758 119.372 32.0744 119.372 31.3013V31.2769C119.372 30.5037 119.563 29.8405 119.945 29.2871C120.336 28.7337 120.897 28.2983 121.63 27.981C122.37 27.6554 123.262 27.4601 124.303 27.395L129.259 27.0898V29.104L124.743 29.3848C123.978 29.4336 123.396 29.6126 122.997 29.9219C122.598 30.2311 122.399 30.6421 122.399 31.1548V31.1792C122.399 31.7163 122.602 32.1395 123.009 32.4487C123.416 32.7498 123.953 32.9004 124.621 32.9004C125.207 32.9004 125.731 32.7824 126.195 32.5464C126.659 32.3104 127.025 31.9889 127.294 31.582C127.562 31.167 127.697 30.7031 127.697 30.1904V26.2598C127.697 25.6087 127.489 25.096 127.074 24.7217C126.667 24.3473 126.073 24.1602 125.292 24.1602C124.576 24.1602 124.002 24.3107 123.571 24.6118C123.139 24.9048 122.871 25.2873 122.765 25.7593L122.741 25.8569H119.909L119.921 25.7227C119.994 24.9577 120.259 24.2782 120.714 23.6841C121.17 23.0819 121.793 22.6099 122.582 22.2681C123.38 21.9181 124.319 21.7432 125.402 21.7432C126.492 21.7432 127.436 21.9222 128.234 22.2803C129.031 22.6302 129.646 23.1307 130.077 23.7817C130.517 24.4328 130.736 25.1937 130.736 26.0645V35H127.697V33.0347H127.611C127.367 33.4823 127.05 33.8729 126.659 34.2065C126.269 34.5321 125.825 34.7843 125.329 34.9634C124.832 35.1343 124.295 35.2197 123.717 35.2197ZM133.336 35V21.9995H136.376V24.209H136.461C136.665 23.4359 137.031 22.8337 137.56 22.4023C138.089 21.971 138.732 21.7554 139.489 21.7554C139.692 21.7554 139.879 21.7676 140.05 21.792C140.229 21.8164 140.376 21.8449 140.49 21.8774V24.6118C140.351 24.563 140.168 24.5223 139.94 24.4897C139.721 24.4572 139.481 24.4409 139.22 24.4409C138.634 24.4409 138.126 24.5589 137.694 24.7949C137.271 25.0309 136.946 25.3768 136.718 25.8325C136.49 26.2801 136.376 26.8213 136.376 27.4561V35H133.336ZM147.533 35.2319C146.166 35.2319 145.153 34.939 144.494 34.353C143.834 33.7671 143.505 32.8149 143.505 31.4966V24.3433H141.637V21.9995H143.505V18.728H146.593V21.9995H149.047V24.3433H146.593V31.1792C146.593 31.814 146.732 32.2575 147.008 32.5098C147.293 32.7539 147.716 32.876 148.278 32.876C148.432 32.876 148.571 32.8719 148.693 32.8638C148.815 32.8475 148.933 32.8353 149.047 32.8271V35.1099C148.868 35.1424 148.648 35.1709 148.388 35.1953C148.127 35.2197 147.842 35.2319 147.533 35.2319ZM156.713 35.2563C155.419 35.2563 154.304 34.9837 153.368 34.4385C152.432 33.8932 151.712 33.116 151.208 32.1069C150.711 31.0978 150.463 29.9056 150.463 28.5303V28.5181C150.463 27.159 150.715 25.9709 151.22 24.9536C151.724 23.9364 152.432 23.147 153.344 22.5854C154.255 22.0239 155.329 21.7432 156.566 21.7432C157.803 21.7432 158.869 22.0158 159.765 22.561C160.668 23.0981 161.364 23.859 161.852 24.8438C162.34 25.8203 162.584 26.9596 162.584 28.2617V29.2505H151.964V27.2241H161.12L159.667 29.1162V27.9443C159.667 27.0898 159.537 26.3818 159.276 25.8203C159.016 25.2507 158.654 24.8275 158.19 24.5508C157.734 24.266 157.205 24.1235 156.603 24.1235C156.001 24.1235 155.464 24.27 154.992 24.563C154.52 24.856 154.149 25.2873 153.881 25.8569C153.612 26.4185 153.478 27.1143 153.478 27.9443V29.1284C153.478 29.9178 153.612 30.5933 153.881 31.1548C154.149 31.7082 154.528 32.1354 155.016 32.4365C155.513 32.7376 156.098 32.8882 156.774 32.8882C157.287 32.8882 157.734 32.8109 158.117 32.6562C158.499 32.4935 158.812 32.29 159.057 32.0459C159.309 31.7936 159.484 31.5291 159.582 31.2524L159.606 31.1548H162.45L162.426 31.2891C162.32 31.7773 162.121 32.2575 161.828 32.7295C161.543 33.2015 161.16 33.6287 160.68 34.0112C160.208 34.3937 159.639 34.6989 158.971 34.9268C158.312 35.1465 157.559 35.2563 156.713 35.2563ZM169.506 35.2563C168.415 35.2563 167.467 34.9837 166.662 34.4385C165.856 33.8932 165.233 33.116 164.794 32.1069C164.354 31.0897 164.135 29.8893 164.135 28.5059V28.4937C164.135 27.1021 164.354 25.9017 164.794 24.8926C165.233 23.8835 165.852 23.1104 166.649 22.5732C167.455 22.028 168.403 21.7554 169.494 21.7554C170.104 21.7554 170.67 21.853 171.19 22.0483C171.711 22.2437 172.171 22.5244 172.57 22.8906C172.977 23.2568 173.298 23.6963 173.534 24.209H173.62V17.2632H176.659V35H173.62V32.8149H173.534C173.298 33.3276 172.981 33.763 172.582 34.1211C172.191 34.4792 171.736 34.7599 171.215 34.9634C170.702 35.1587 170.132 35.2563 169.506 35.2563ZM170.421 32.6929C171.056 32.6929 171.614 32.522 172.094 32.1802C172.582 31.8384 172.96 31.3542 173.229 30.7275C173.498 30.1009 173.632 29.3604 173.632 28.5059V28.4937C173.632 27.6392 173.493 26.8986 173.217 26.272C172.948 25.6453 172.574 25.1611 172.094 24.8193C171.614 24.4775 171.056 24.3066 170.421 24.3066C169.77 24.3066 169.205 24.4775 168.725 24.8193C168.244 25.153 167.874 25.6331 167.614 26.2598C167.361 26.8783 167.235 27.6229 167.235 28.4937V28.5059C167.235 29.3685 167.361 30.1131 167.614 30.7397C167.874 31.3664 168.244 31.8506 168.725 32.1924C169.205 32.526 169.77 32.6929 170.421 32.6929Z" fill="black"/>
</svg>
