<svg width="651" height="62" viewBox="0 0 651 62" fill="none" xmlns="http://www.w3.org/2000/svg">
<rect x="33.5" y="0.5" width="617" height="61" rx="19.5" fill="#0B0B0B" stroke="#393939"/>
<path d="M61.6602 46.1279L59.6704 44.4067C59.4751 44.2358 59.3368 44.0283 59.2554 43.7842C59.174 43.54 59.1333 43.304 59.1333 43.0762V31.6626C58.1405 31.2069 57.2819 30.5924 56.5576 29.8193C55.8333 29.0462 55.2718 28.1673 54.873 27.1826C54.4824 26.1898 54.2871 25.144 54.2871 24.0454C54.2871 22.8898 54.5028 21.8075 54.9341 20.7983C55.3654 19.7811 55.9635 18.89 56.7285 18.125C57.4935 17.36 58.3805 16.766 59.3896 16.3428C60.4069 15.9115 61.4974 15.6958 62.6611 15.6958C63.8167 15.6958 64.8991 15.9115 65.9082 16.3428C66.9255 16.7741 67.8166 17.3722 68.5815 18.1372C69.3465 18.9022 69.9447 19.7933 70.376 20.8105C70.8154 21.8197 71.0352 22.8979 71.0352 24.0454C71.0352 25.6567 70.5916 27.1257 69.7046 28.4521C68.8175 29.7786 67.5562 30.8569 65.9204 31.687L68.2764 34.0552C68.5531 34.34 68.6914 34.6737 68.6914 35.0562C68.6914 35.4386 68.5531 35.7682 68.2764 36.0449L65.6763 38.645L67.4097 40.3784C67.6864 40.6551 67.8288 40.9847 67.8369 41.3672C67.8451 41.7497 67.7067 42.0833 67.4219 42.3682L63.6499 46.1401C63.3651 46.4168 63.0396 46.547 62.6733 46.5308C62.3071 46.5145 61.9694 46.3802 61.6602 46.1279ZM62.6611 43.7964L65.0781 41.355L63.4912 39.8047V37.4609L65.9326 35.0684L63.6377 32.7612V30.0024C64.6387 29.7909 65.5176 29.3962 66.2744 28.8184C67.0394 28.2406 67.6294 27.5407 68.0444 26.7188C68.4676 25.8887 68.6792 24.9976 68.6792 24.0454C68.6792 22.9386 68.4066 21.9336 67.8613 21.0303C67.3242 20.1188 66.5999 19.3945 65.6885 18.8574C64.777 18.3203 63.7679 18.0518 62.6611 18.0518C61.8229 18.0518 61.0376 18.2064 60.3052 18.5156C59.5809 18.8249 58.9421 19.2562 58.3887 19.8096C57.8353 20.3548 57.404 20.9896 57.0947 21.7139C56.7855 22.4382 56.6309 23.2153 56.6309 24.0454C56.6309 25.0138 56.8343 25.909 57.2412 26.731C57.6481 27.5448 58.2056 28.2365 58.9136 28.8062C59.6297 29.3677 60.4435 29.7461 61.355 29.9414V42.5024L62.6611 43.7964ZM62.6611 23.7524C62.1159 23.7524 61.652 23.5612 61.2695 23.1787C60.887 22.7881 60.6958 22.3201 60.6958 21.7749C60.6958 21.2297 60.887 20.7658 61.2695 20.3833C61.652 20.0008 62.1159 19.8096 62.6611 19.8096C63.2064 19.8096 63.6702 20.0008 64.0527 20.3833C64.4352 20.7658 64.6265 21.2297 64.6265 21.7749C64.6265 22.3201 64.4352 22.7881 64.0527 23.1787C63.6702 23.5612 63.2064 23.7524 62.6611 23.7524Z" fill="white"/>
<path d="M87.8564 34.1772V31.6382H92.3242C93.4554 31.6382 94.3343 31.3493 94.9609 30.7715C95.5876 30.1855 95.9009 29.3636 95.9009 28.3057V28.2812C95.9009 27.2152 95.5876 26.3932 94.9609 25.8154C94.3343 25.2376 93.4554 24.9487 92.3242 24.9487H87.8564V22.3853H93.1055C94.2936 22.3853 95.3353 22.6294 96.2305 23.1177C97.1257 23.606 97.8255 24.2936 98.3301 25.1807C98.8346 26.0596 99.0869 27.089 99.0869 28.269V28.2935C99.0869 29.4653 98.8346 30.4948 98.3301 31.3818C97.8255 32.2607 97.1257 32.9484 96.2305 33.4448C95.3353 33.9331 94.2936 34.1772 93.1055 34.1772H87.8564ZM86.2817 40V22.3853H89.4312V40H86.2817ZM104.153 40.2197C103.298 40.2197 102.542 40.057 101.882 39.7314C101.231 39.3978 100.723 38.938 100.356 38.3521C99.9902 37.758 99.8071 37.0744 99.8071 36.3013V36.2769C99.8071 35.5037 99.9984 34.8405 100.381 34.2871C100.771 33.7337 101.333 33.2983 102.065 32.981C102.806 32.6554 103.697 32.4601 104.739 32.395L109.695 32.0898V34.104L105.178 34.3848C104.413 34.4336 103.831 34.6126 103.433 34.9219C103.034 35.2311 102.834 35.6421 102.834 36.1548V36.1792C102.834 36.7163 103.038 37.1395 103.445 37.4487C103.852 37.7498 104.389 37.9004 105.056 37.9004C105.642 37.9004 106.167 37.7824 106.631 37.5464C107.095 37.3104 107.461 36.9889 107.729 36.582C107.998 36.167 108.132 35.7031 108.132 35.1904V31.2598C108.132 30.6087 107.925 30.096 107.51 29.7217C107.103 29.3473 106.509 29.1602 105.728 29.1602C105.011 29.1602 104.438 29.3107 104.006 29.6118C103.575 29.9048 103.306 30.2873 103.201 30.7593L103.176 30.8569H100.344L100.356 30.7227C100.43 29.9577 100.694 29.2782 101.15 28.6841C101.606 28.0819 102.228 27.6099 103.018 27.2681C103.815 26.9181 104.755 26.7432 105.837 26.7432C106.928 26.7432 107.872 26.9222 108.669 27.2803C109.467 27.6302 110.081 28.1307 110.513 28.7817C110.952 29.4328 111.172 30.1937 111.172 31.0645V40H108.132V38.0347H108.047C107.803 38.4823 107.485 38.8729 107.095 39.2065C106.704 39.5321 106.261 39.7843 105.764 39.9634C105.268 40.1343 104.731 40.2197 104.153 40.2197ZM118.838 40.2563C117.707 40.2563 116.738 40.0895 115.933 39.7559C115.127 39.4222 114.496 38.9583 114.041 38.3643C113.585 37.762 113.312 37.0622 113.223 36.2646L113.21 36.167H116.201L116.213 36.2769C116.344 36.814 116.624 37.2371 117.056 37.5464C117.487 37.8556 118.085 38.0103 118.85 38.0103C119.347 38.0103 119.77 37.9492 120.12 37.8271C120.478 37.6969 120.754 37.5138 120.95 37.2778C121.145 37.0418 121.243 36.7651 121.243 36.4478V36.4355C121.243 36.0449 121.108 35.7316 120.84 35.4956C120.571 35.2515 120.099 35.0521 119.424 34.8975L117.263 34.4092C116.441 34.2301 115.754 33.9779 115.2 33.6523C114.647 33.3187 114.232 32.9118 113.955 32.4316C113.678 31.9434 113.54 31.3778 113.54 30.7349V30.7227C113.54 29.9251 113.756 29.2293 114.187 28.6353C114.626 28.0412 115.237 27.5773 116.018 27.2437C116.799 26.91 117.707 26.7432 118.74 26.7432C119.823 26.7432 120.746 26.9222 121.511 27.2803C122.276 27.6302 122.87 28.1063 123.293 28.7085C123.717 29.3026 123.949 29.9699 123.989 30.7104V30.8325H121.157V30.7471C121.084 30.2344 120.84 29.8153 120.425 29.4897C120.018 29.1561 119.456 28.9893 118.74 28.9893C118.301 28.9893 117.914 29.0544 117.581 29.1846C117.247 29.3148 116.991 29.4979 116.812 29.7339C116.632 29.9699 116.543 30.2466 116.543 30.564V30.5762C116.543 30.8203 116.604 31.0441 116.726 31.2476C116.848 31.4429 117.048 31.6138 117.324 31.7603C117.601 31.8986 117.963 32.0207 118.411 32.1265L120.559 32.6025C121.894 32.9036 122.85 33.335 123.428 33.8965C124.006 34.4499 124.294 35.1986 124.294 36.1426V36.1548C124.294 36.9767 124.058 37.6969 123.586 38.3154C123.123 38.9258 122.48 39.4019 121.658 39.7437C120.836 40.0854 119.896 40.2563 118.838 40.2563ZM131.411 40.2563C130.28 40.2563 129.312 40.0895 128.506 39.7559C127.7 39.4222 127.069 38.9583 126.614 38.3643C126.158 37.762 125.885 37.0622 125.796 36.2646L125.784 36.167H128.774L128.787 36.2769C128.917 36.814 129.198 37.2371 129.629 37.5464C130.06 37.8556 130.658 38.0103 131.423 38.0103C131.92 38.0103 132.343 37.9492 132.693 37.8271C133.051 37.6969 133.328 37.5138 133.523 37.2778C133.718 37.0418 133.816 36.7651 133.816 36.4478V36.4355C133.816 36.0449 133.682 35.7316 133.413 35.4956C133.145 35.2515 132.673 35.0521 131.997 34.8975L129.836 34.4092C129.014 34.2301 128.327 33.9779 127.773 33.6523C127.22 33.3187 126.805 32.9118 126.528 32.4316C126.252 31.9434 126.113 31.3778 126.113 30.7349V30.7227C126.113 29.9251 126.329 29.2293 126.76 28.6353C127.2 28.0412 127.81 27.5773 128.591 27.2437C129.373 26.91 130.28 26.7432 131.313 26.7432C132.396 26.7432 133.319 26.9222 134.084 27.2803C134.849 27.6302 135.444 28.1063 135.867 28.7085C136.29 29.3026 136.522 29.9699 136.562 30.7104V30.8325H133.73V30.7471C133.657 30.2344 133.413 29.8153 132.998 29.4897C132.591 29.1561 132.03 28.9893 131.313 28.9893C130.874 28.9893 130.487 29.0544 130.154 29.1846C129.82 29.3148 129.564 29.4979 129.385 29.7339C129.206 29.9699 129.116 30.2466 129.116 30.564V30.5762C129.116 30.8203 129.177 31.0441 129.299 31.2476C129.421 31.4429 129.621 31.6138 129.897 31.7603C130.174 31.8986 130.536 32.0207 130.984 32.1265L133.132 32.6025C134.467 32.9036 135.423 33.335 136.001 33.8965C136.579 34.4499 136.868 35.1986 136.868 36.1426V36.1548C136.868 36.9767 136.632 37.6969 136.16 38.3154C135.696 38.9258 135.053 39.4019 134.231 39.7437C133.409 40.0854 132.469 40.2563 131.411 40.2563ZM141.409 40L137.893 26.9995H140.933L143.13 36.9482H143.215L145.742 26.9995H148.647L151.199 36.9482H151.272L153.469 26.9995H156.472L152.957 40H149.771L147.207 30.5029H147.122L144.583 40H141.409ZM163.699 40.2563C162.421 40.2563 161.31 39.9878 160.366 39.4507C159.43 38.9054 158.702 38.1283 158.181 37.1191C157.668 36.11 157.412 34.9056 157.412 33.5059V33.4814C157.412 32.0898 157.673 30.8895 158.193 29.8804C158.714 28.8713 159.447 28.0981 160.391 27.561C161.335 27.0158 162.437 26.7432 163.699 26.7432C164.96 26.7432 166.063 27.0158 167.007 27.561C167.951 28.0981 168.683 28.8713 169.204 29.8804C169.725 30.8813 169.985 32.0817 169.985 33.4814V33.5059C169.985 34.9056 169.725 36.11 169.204 37.1191C168.691 38.1283 167.963 38.9054 167.019 39.4507C166.083 39.9878 164.976 40.2563 163.699 40.2563ZM163.711 37.8027C164.362 37.8027 164.924 37.6359 165.396 37.3022C165.868 36.9604 166.234 36.4722 166.494 35.8374C166.755 35.1945 166.885 34.4173 166.885 33.5059V33.4814C166.885 32.5781 166.755 31.8091 166.494 31.1743C166.234 30.5314 165.863 30.0431 165.383 29.7095C164.903 29.3677 164.342 29.1968 163.699 29.1968C163.056 29.1968 162.494 29.3677 162.014 29.7095C161.534 30.0513 161.164 30.5396 160.903 31.1743C160.643 31.8091 160.513 32.5781 160.513 33.4814V33.5059C160.513 34.4173 160.643 35.1945 160.903 35.8374C161.164 36.4722 161.534 36.9604 162.014 37.3022C162.494 37.6359 163.06 37.8027 163.711 37.8027ZM172.073 40V26.9995H175.112V29.209H175.198C175.401 28.4359 175.767 27.8337 176.296 27.4023C176.825 26.971 177.468 26.7554 178.225 26.7554C178.429 26.7554 178.616 26.7676 178.787 26.792C178.966 26.8164 179.112 26.8449 179.226 26.8774V29.6118C179.088 29.563 178.905 29.5223 178.677 29.4897C178.457 29.4572 178.217 29.4409 177.957 29.4409C177.371 29.4409 176.862 29.5589 176.431 29.7949C176.007 30.0309 175.682 30.3768 175.454 30.8325C175.226 31.2801 175.112 31.8213 175.112 32.4561V40H172.073ZM185.269 40.2563C184.178 40.2563 183.23 39.9837 182.424 39.4385C181.619 38.8932 180.996 38.116 180.557 37.1069C180.117 36.0897 179.897 34.8893 179.897 33.5059V33.4937C179.897 32.1021 180.117 30.9017 180.557 29.8926C180.996 28.8835 181.615 28.1104 182.412 27.5732C183.218 27.028 184.166 26.7554 185.256 26.7554C185.867 26.7554 186.432 26.853 186.953 27.0483C187.474 27.2437 187.934 27.5244 188.333 27.8906C188.739 28.2568 189.061 28.6963 189.297 29.209H189.382V22.2632H192.422V40H189.382V37.8149H189.297C189.061 38.3276 188.743 38.763 188.345 39.1211C187.954 39.4792 187.498 39.7599 186.978 39.9634C186.465 40.1587 185.895 40.2563 185.269 40.2563ZM186.184 37.6929C186.819 37.6929 187.376 37.522 187.856 37.1802C188.345 36.8384 188.723 36.3542 188.992 35.7275C189.26 35.1009 189.395 34.3604 189.395 33.5059V33.4937C189.395 32.6392 189.256 31.8986 188.979 31.272C188.711 30.6453 188.337 30.1611 187.856 29.8193C187.376 29.4775 186.819 29.3066 186.184 29.3066C185.533 29.3066 184.967 29.4775 184.487 29.8193C184.007 30.153 183.637 30.6331 183.376 31.2598C183.124 31.8783 182.998 32.6229 182.998 33.4937V33.5059C182.998 34.3685 183.124 35.1131 183.376 35.7397C183.637 36.3664 184.007 36.8506 184.487 37.1924C184.967 37.526 185.533 37.6929 186.184 37.6929Z" fill="#393939"/>
</svg>
