<svg width="49" height="32" viewBox="0 0 49 32" fill="none" xmlns="http://www.w3.org/2000/svg">
<path d="M22.3281 27.6611C20.1878 27.6611 19.1177 26.9246 19.1177 25.4517C19.1177 24.5972 19.374 23.7142 19.8867 22.8027C20.3994 21.8831 21.1278 21.0327 22.0718 20.2515C23.0239 19.4702 24.1592 18.8395 25.4775 18.3594C26.804 17.8711 28.277 17.627 29.8965 17.627C31.5241 17.627 32.9971 17.8711 34.3154 18.3594C35.6419 18.8395 36.7772 19.4702 37.7212 20.2515C38.6733 21.0327 39.4058 21.8831 39.9185 22.8027C40.4312 23.7142 40.6875 24.5972 40.6875 25.4517C40.6875 26.9246 39.6133 27.6611 37.4648 27.6611L22.3281 27.6611ZM22.0596 25.3418L37.7334 25.3418C37.8717 25.3418 37.9653 25.3174 38.0142 25.2686C38.0711 25.2279 38.0996 25.1546 38.0996 25.0488C38.0996 24.6012 37.9165 24.0885 37.5503 23.5107C37.1922 22.9329 36.6632 22.3755 35.9634 21.8384C35.2635 21.2931 34.4049 20.8415 33.3877 20.4834C32.3704 20.1253 31.2067 19.9463 29.8965 19.9463C28.5863 19.9463 27.4225 20.1253 26.4053 20.4834C25.388 20.8415 24.5295 21.2931 23.8296 21.8384C23.1297 22.3755 22.5967 22.9329 22.2305 23.5107C21.8724 24.0885 21.6934 24.6012 21.6934 25.0488C21.6934 25.1546 21.7218 25.2279 21.7788 25.2686C21.8358 25.3174 21.9294 25.3418 22.0596 25.3418ZM29.9087 16.2598C28.9077 16.2598 28.0003 15.9993 27.1865 15.4785C26.3727 14.9577 25.7217 14.2578 25.2334 13.3789C24.7533 12.4919 24.5132 11.5153 24.5132 10.4492C24.5132 9.39128 24.7573 8.43099 25.2456 7.56836C25.7339 6.69759 26.3849 6.00586 27.1987 5.49316C28.0125 4.97233 28.9159 4.71191 29.9087 4.71191C30.9015 4.71191 31.8049 4.96826 32.6187 5.48096C33.4325 5.99365 34.0794 6.68132 34.5596 7.54395C35.0479 8.40658 35.292 9.36686 35.292 10.4248C35.292 11.499 35.0479 12.4797 34.5596 13.3667C34.0794 14.2456 33.4325 14.9495 32.6187 15.4785C31.8049 15.9993 30.9015 16.2598 29.9087 16.2598ZM29.9087 13.9526C30.4539 13.9526 30.9504 13.798 31.3979 13.4888C31.8537 13.1714 32.2158 12.7482 32.4844 12.2192C32.7611 11.6821 32.8994 11.084 32.8994 10.4248C32.8994 9.7819 32.7651 9.2041 32.4966 8.69141C32.228 8.17871 31.8659 7.77181 31.4102 7.4707C30.9544 7.1696 30.4539 7.01904 29.9087 7.01904C29.3634 7.01904 28.863 7.1696 28.4072 7.4707C27.9596 7.77181 27.5975 8.18278 27.3208 8.70361C27.0441 9.22445 26.9058 9.80225 26.9058 10.437C26.9058 11.0962 27.0441 11.6943 27.3208 12.2314C27.5975 12.7604 27.9596 13.1795 28.4072 13.4888C28.863 13.798 29.3634 13.9526 29.9087 13.9526ZM9.02246 27.6611C8.11914 27.6611 7.43962 27.4658 6.98389 27.0752C6.52816 26.6846 6.30029 26.1068 6.30029 25.3418C6.30029 24.3327 6.54443 23.3643 7.03271 22.4365C7.521 21.5088 8.19238 20.6828 9.04688 19.9585C9.90951 19.2342 10.9064 18.6646 12.0376 18.2495C13.1769 17.8263 14.3936 17.6147 15.6875 17.6147C16.306 17.6147 16.9245 17.6717 17.543 17.7856C18.1615 17.8914 18.7637 18.0501 19.3496 18.2617C19.9355 18.4652 20.4849 18.7174 20.9976 19.0186C20.6232 19.2627 20.2936 19.5272 20.0088 19.812C19.7321 20.0887 19.492 20.3939 19.2886 20.7275C18.9631 20.5485 18.6009 20.3979 18.2021 20.2759C17.8034 20.1457 17.3883 20.048 16.957 19.9829C16.5339 19.9097 16.1107 19.873 15.6875 19.873C14.7354 19.873 13.8402 20.0195 13.002 20.3125C12.1637 20.6055 11.4191 21.0002 10.7681 21.4966C10.1252 21.993 9.62061 22.5545 9.25439 23.1812C8.89632 23.7996 8.71729 24.4385 8.71729 25.0977C8.71729 25.1953 8.73763 25.2686 8.77832 25.3174C8.82715 25.3662 8.90853 25.3906 9.02246 25.3906L17.3721 25.3906C17.3232 25.8219 17.3965 26.2533 17.5918 26.6846C17.7952 27.124 18.076 27.4495 18.4341 27.6611L9.02246 27.6611ZM15.6997 16.4185C14.8371 16.4185 14.0477 16.1906 13.3315 15.7349C12.6235 15.271 12.0579 14.6525 11.6348 13.8794C11.2116 13.1063 11 12.2477 11 11.3037C11 10.376 11.2116 9.53369 11.6348 8.77686C12.0661 8.01188 12.6357 7.40153 13.3438 6.9458C14.0518 6.49007 14.8371 6.26221 15.6997 6.26221C16.5623 6.26221 17.3477 6.49007 18.0557 6.9458C18.7718 7.39339 19.3415 7.99967 19.7646 8.76465C20.1878 9.52148 20.3994 10.3597 20.3994 11.2793C20.3994 12.2233 20.1878 13.0859 19.7646 13.8672C19.3415 14.6484 18.7718 15.271 18.0557 15.7349C17.3477 16.1906 16.5623 16.4185 15.6997 16.4185ZM15.6997 14.1357C16.1392 14.1357 16.542 14.0096 16.9082 13.7573C17.2826 13.505 17.5796 13.1632 17.7993 12.7319C18.0272 12.3006 18.1411 11.8164 18.1411 11.2793C18.1411 10.7666 18.0272 10.3068 17.7993 9.8999C17.5796 9.48486 17.2866 9.15527 16.9204 8.91113C16.5542 8.65885 16.1473 8.53271 15.6997 8.53271C15.2603 8.53271 14.8534 8.65885 14.479 8.91113C14.1128 9.15527 13.8198 9.48893 13.6001 9.91211C13.3804 10.3271 13.2705 10.791 13.2705 11.3037C13.2705 11.8327 13.3804 12.3128 13.6001 12.7441C13.828 13.1755 14.125 13.5173 14.4912 13.7695C14.8574 14.0137 15.2603 14.1357 15.6997 14.1357Z" fill="#393939"/>
</svg>
