<svg width="49" height="32" viewBox="0 0 49 32" fill="none" xmlns="http://www.w3.org/2000/svg">
<path d="M22.3403 27.2583C21.3068 27.2583 20.5866 27.0996 20.1797 26.7822C19.7728 26.473 19.5693 26.0295 19.5693 25.4517C19.5693 24.6704 19.8094 23.8485 20.2896 22.9858C20.7697 22.1232 21.4614 21.3175 22.3647 20.5688C23.2681 19.812 24.3545 19.1976 25.624 18.7256C26.9017 18.2536 28.3299 18.0176 29.9087 18.0176C31.4875 18.0176 32.9116 18.2536 34.1812 18.7256C35.4588 19.1976 36.5493 19.812 37.4526 20.5688C38.356 21.3175 39.0477 22.1232 39.5278 22.9858C40.008 23.8485 40.248 24.6704 40.248 25.4517C40.248 26.0295 40.0446 26.473 39.6377 26.7822C39.2308 27.0996 38.5065 27.2583 37.4648 27.2583L22.3403 27.2583ZM29.9087 15.8691C29.0054 15.8691 28.1794 15.6291 27.4307 15.1489C26.682 14.6606 26.0798 14.0096 25.624 13.1958C25.1764 12.3739 24.9526 11.4543 24.9526 10.437C24.9526 9.45231 25.1805 8.55713 25.6362 7.75146C26.092 6.93766 26.6942 6.29476 27.4429 5.82275C28.1916 5.34261 29.0135 5.10254 29.9087 5.10254C30.812 5.10254 31.638 5.33854 32.3867 5.81055C33.1354 6.28255 33.7336 6.92139 34.1812 7.72705C34.6369 8.52458 34.8647 9.42383 34.8647 10.4248C34.8647 11.4421 34.6369 12.3617 34.1812 13.1836C33.7336 14.0055 33.1354 14.6606 32.3867 15.1489C31.638 15.6291 30.812 15.8691 29.9087 15.8691ZM9.0835 27.2705C8.229 27.2705 7.62679 27.0915 7.27686 26.7334C6.92692 26.3835 6.75195 25.887 6.75195 25.2441C6.75195 24.4303 6.96354 23.6003 7.38672 22.7539C7.81803 21.8994 8.42839 21.1141 9.21777 20.3979C10.0153 19.6818 10.9634 19.0999 12.062 18.6523C13.1688 18.2048 14.4017 17.981 15.7607 17.981C16.835 17.981 17.8075 18.1234 18.6782 18.4082C19.5571 18.6849 20.3262 19.0348 20.9854 19.458C20.2773 20.0195 19.6711 20.6502 19.1665 21.3501C18.6619 22.05 18.2754 22.7661 18.0068 23.4985C17.7464 24.2228 17.6203 24.9105 17.6284 25.5615C17.6447 26.2207 17.8156 26.7904 18.1411 27.2705L9.0835 27.2705ZM15.7607 16.1377C14.9795 16.1377 14.2593 15.9302 13.6001 15.5151C12.9491 15.092 12.4282 14.5223 12.0376 13.8062C11.647 13.09 11.4517 12.2925 11.4517 11.4136C11.4517 10.5509 11.647 9.76969 12.0376 9.06982C12.4364 8.36182 12.9613 7.80029 13.6123 7.38525C14.2715 6.97021 14.9876 6.7627 15.7607 6.7627C16.5339 6.7627 17.2459 6.97021 17.897 7.38525C18.5562 7.79215 19.0811 8.34554 19.4717 9.04541C19.8704 9.74528 20.0698 10.5306 20.0698 11.4014C20.0698 12.2803 19.8745 13.0819 19.4839 13.8062C19.0933 14.5223 18.5724 15.092 17.9214 15.5151C17.2703 15.9302 16.5501 16.1377 15.7607 16.1377Z" fill="white"/>
</svg>
