<svg width="617" height="68" viewBox="0 0 617 68" fill="none" xmlns="http://www.w3.org/2000/svg">
<rect x="0.5" y="0.5" width="616" height="67" rx="19.5" fill="white" stroke="#393939"/>
<path d="M284.602 41V26.9082H289.855C291.255 26.9082 292.45 27.1816 293.439 27.7285C294.429 28.2754 295.184 29.0697 295.705 30.1113C296.232 31.153 296.496 32.4128 296.496 33.8906V33.9102C296.496 35.4076 296.232 36.6868 295.705 37.748C295.184 38.8027 294.429 39.61 293.439 40.1699C292.456 40.7233 291.262 41 289.855 41H284.602ZM287.121 38.8809H289.533C290.471 38.8809 291.265 38.6888 291.916 38.3047C292.574 37.9206 293.072 37.3607 293.41 36.625C293.755 35.8893 293.928 34.9941 293.928 33.9395V33.9199C293.928 32.8848 293.755 32.0026 293.41 31.2734C293.065 30.5443 292.564 29.9876 291.906 29.6035C291.249 29.2194 290.458 29.0273 289.533 29.0273H287.121V38.8809ZM303.518 41.2148C302.469 41.2148 301.561 40.9935 300.793 40.5508C300.031 40.1081 299.442 39.4766 299.025 38.6562C298.615 37.8294 298.41 36.8464 298.41 35.707V35.6875C298.41 34.5547 298.618 33.5781 299.035 32.7578C299.452 31.931 300.041 31.2962 300.803 30.8535C301.571 30.4108 302.476 30.1895 303.518 30.1895C304.566 30.1895 305.471 30.4108 306.232 30.8535C306.994 31.2962 307.583 31.9277 308 32.748C308.417 33.5684 308.625 34.5482 308.625 35.6875V35.707C308.625 36.8464 308.417 37.8294 308 38.6562C307.59 39.4766 307.004 40.1081 306.242 40.5508C305.48 40.9935 304.572 41.2148 303.518 41.2148ZM303.518 39.2422C304.071 39.2422 304.543 39.1022 304.934 38.8223C305.324 38.5423 305.624 38.1387 305.832 37.6113C306.04 37.084 306.145 36.4492 306.145 35.707V35.6875C306.145 34.9453 306.04 34.3138 305.832 33.793C305.624 33.2656 305.324 32.862 304.934 32.582C304.543 32.3021 304.071 32.1621 303.518 32.1621C302.971 32.1621 302.502 32.3021 302.111 32.582C301.721 32.862 301.421 33.2656 301.213 33.793C301.005 34.3138 300.9 34.9453 300.9 35.6875V35.707C300.9 36.4557 301.005 37.0938 301.213 37.6211C301.421 38.1484 301.721 38.5521 302.111 38.832C302.502 39.1055 302.971 39.2422 303.518 39.2422ZM310.852 41V30.4043H313.283V32.0352H313.42C313.68 31.4622 314.068 31.013 314.582 30.6875C315.103 30.3555 315.751 30.1895 316.525 30.1895C317.704 30.1895 318.605 30.5345 319.23 31.2246C319.862 31.9147 320.178 32.888 320.178 34.1445V41H317.746V34.6914C317.746 33.8841 317.57 33.2754 317.219 32.8652C316.874 32.4486 316.34 32.2402 315.617 32.2402C315.135 32.2402 314.719 32.3477 314.367 32.5625C314.022 32.7773 313.755 33.0768 313.566 33.4609C313.378 33.8451 313.283 34.3008 313.283 34.8281V41H310.852ZM327.385 41.2148C326.337 41.2148 325.432 40.9935 324.67 40.5508C323.915 40.1016 323.332 39.4668 322.922 38.6465C322.518 37.8262 322.316 36.8529 322.316 35.7266V35.7168C322.316 34.6035 322.518 33.6335 322.922 32.8066C323.332 31.9798 323.908 31.3385 324.65 30.8828C325.393 30.4206 326.268 30.1895 327.277 30.1895C328.28 30.1895 329.146 30.4108 329.875 30.8535C330.611 31.2962 331.174 31.918 331.564 32.7188C331.962 33.513 332.16 34.444 332.16 35.5117V36.3125H323.537V34.6816H330.979L329.816 36.2051V35.2383C329.816 34.5352 329.709 33.9525 329.494 33.4902C329.279 33.028 328.983 32.6797 328.605 32.4453C328.234 32.2109 327.801 32.0938 327.307 32.0938C326.812 32.0938 326.372 32.2142 325.988 32.4551C325.604 32.696 325.298 33.0508 325.07 33.5195C324.849 33.9883 324.738 34.5612 324.738 35.2383V36.2051C324.738 36.8561 324.846 37.4128 325.061 37.875C325.282 38.3372 325.594 38.6921 325.998 38.9395C326.408 39.1868 326.89 39.3105 327.443 39.3105C327.873 39.3105 328.244 39.2487 328.557 39.125C328.869 38.9948 329.123 38.8385 329.318 38.6562C329.514 38.4674 329.65 38.2852 329.729 38.1094L329.758 38.041H332.053L332.033 38.1289C331.949 38.487 331.792 38.8483 331.564 39.2129C331.337 39.571 331.034 39.903 330.656 40.209C330.279 40.5085 329.816 40.7526 329.27 40.9414C328.729 41.1237 328.101 41.2148 327.385 41.2148Z" fill="black"/>
</svg>
