<svg width="617" height="83" viewBox="0 0 617 83" fill="none" xmlns="http://www.w3.org/2000/svg">
<rect x="0.5" y="0.5" width="616" height="81.7244" rx="19.5" fill="white" stroke="#393939"/>
<path d="M287.258 48.949V34.8572H289.465L297.18 45.7458L295.295 44.6033H296.506V34.8572H298.947V48.949H296.76L289.025 38.0408L290.92 39.1833H289.699V48.949H287.258ZM306.506 49.1638C305.458 49.1638 304.553 48.9425 303.791 48.4998C303.036 48.0505 302.453 47.4158 302.043 46.5955C301.639 45.7751 301.438 44.8018 301.438 43.6755V43.6658C301.438 42.5525 301.639 41.5824 302.043 40.7556C302.453 39.9288 303.029 39.2875 303.771 38.8318C304.514 38.3695 305.389 38.1384 306.398 38.1384C307.401 38.1384 308.267 38.3598 308.996 38.8025C309.732 39.2452 310.295 39.8669 310.686 40.6677C311.083 41.462 311.281 42.393 311.281 43.4607V44.2615H302.658V42.6306H310.1L308.938 44.1541V43.1873C308.938 42.4841 308.83 41.9014 308.615 41.4392C308.4 40.977 308.104 40.6287 307.727 40.3943C307.355 40.1599 306.923 40.0427 306.428 40.0427C305.933 40.0427 305.493 40.1632 305.109 40.4041C304.725 40.6449 304.419 40.9998 304.191 41.4685C303.97 41.9373 303.859 42.5102 303.859 43.1873V44.1541C303.859 44.8051 303.967 45.3617 304.182 45.824C304.403 46.2862 304.715 46.641 305.119 46.8884C305.529 47.1358 306.011 47.2595 306.564 47.2595C306.994 47.2595 307.365 47.1977 307.678 47.074C307.99 46.9438 308.244 46.7875 308.439 46.6052C308.635 46.4164 308.771 46.2341 308.85 46.0583L308.879 45.99H311.174L311.154 46.0779C311.07 46.436 310.913 46.7973 310.686 47.1619C310.458 47.5199 310.155 47.852 309.777 48.158C309.4 48.4574 308.938 48.7016 308.391 48.8904C307.85 49.0727 307.222 49.1638 306.506 49.1638ZM312.365 48.949L315.793 43.6853L312.355 38.3533H315.139L317.248 42.0349H317.395L319.494 38.3533H322.15L318.732 43.5876L322.17 48.949H319.455L317.287 45.238H317.141L314.963 48.949H312.365ZM328.225 49.0369C327.04 49.0369 326.177 48.8123 325.637 48.363C325.103 47.9073 324.836 47.1586 324.836 46.1169V40.2283H323.225V38.3533H324.836V35.7263H327.307V38.3533H329.475V40.2283H327.307V45.6384C327.307 46.1593 327.417 46.5369 327.639 46.7712C327.867 46.9991 328.225 47.113 328.713 47.113C328.869 47.113 329.003 47.1098 329.113 47.1033C329.23 47.0903 329.351 47.0805 329.475 47.074V48.9294C329.312 48.9555 329.123 48.9783 328.908 48.9978C328.693 49.0238 328.465 49.0369 328.225 49.0369Z" fill="black"/>
</svg>
