<svg width="28" height="26" viewBox="0 0 28 26" fill="none" xmlns="http://www.w3.org/2000/svg">
<path d="M26.5 21.4333V12.3258C26.5 10.9585 25.9435 9.64644 24.9315 8.70662C23.7453 7.60493 22.0995 6.1187 20.7708 5.07778C18.2575 3.10877 17.0031 1.5 14 1.5C10.9969 1.5 9.74249 3.10877 7.22917 5.07778C5.90049 6.1187 4.2547 7.60493 3.06846 8.70662C2.0565 9.64644 1.5 10.9585 1.5 12.3258V21.4333C1.5 23.127 2.89911 24.5 4.625 24.5H8.79167C9.94226 24.5 10.875 23.5847 10.875 22.4556V17.9635C10.875 16.9381 11.3972 15.9806 12.2666 15.4118C13.3162 14.7251 14.6838 14.7251 15.7334 15.4118C16.6028 15.9806 17.125 16.9381 17.125 17.9635V22.4556C17.125 23.5847 18.0577 24.5 19.2083 24.5H23.375C25.1009 24.5 26.5 23.127 26.5 21.4333Z" stroke="#393939" stroke-width="3"/>
</svg>
