<svg width="618" height="62" viewBox="0 0 618 62" fill="none" xmlns="http://www.w3.org/2000/svg">
<rect x="0.5" y="0.5" width="617" height="61" rx="19.5" fill="#0B0B0B" stroke="#393939"/>
<path d="M27.5859 42.9053C26.0397 42.9053 24.6196 42.6733 23.3257 42.2095C22.0399 41.7456 20.925 41.0742 19.981 40.1953C19.0451 39.3164 18.3167 38.2422 17.7959 36.9727C17.2832 35.695 17.0269 34.2505 17.0269 32.6392V32.627C17.0269 31.1051 17.2751 29.7176 17.7715 28.4644C18.276 27.2111 18.984 26.1328 19.8955 25.2295C20.807 24.318 21.8893 23.6182 23.1426 23.1299C24.3958 22.6335 25.7793 22.3853 27.293 22.3853C29.2298 22.3853 30.9388 22.7677 32.4199 23.5327C33.901 24.2977 35.0566 25.38 35.8867 26.7798C36.7249 28.1714 37.144 29.8112 37.144 31.6992V31.7236C37.144 33.0339 36.9609 34.1528 36.5947 35.0806C36.2367 36.0002 35.7362 36.7041 35.0933 37.1924C34.4585 37.6807 33.7301 37.9248 32.9082 37.9248C32.1514 37.9248 31.5125 37.7336 30.9917 37.3511C30.4709 36.9604 30.0965 36.4722 29.8687 35.8862L29.7954 35.7153H29.6855C29.3844 36.4396 28.945 36.9808 28.3672 37.3389C27.7894 37.6969 27.118 37.876 26.353 37.876C25.5148 37.876 24.7783 37.6603 24.1436 37.229C23.5088 36.7896 23.0124 36.1792 22.6543 35.3979C22.3044 34.6167 22.1294 33.7012 22.1294 32.6514V32.6392C22.1294 31.6382 22.3084 30.7593 22.6665 30.0024C23.0327 29.2375 23.5291 28.6434 24.1558 28.2202C24.7905 27.7889 25.5189 27.5732 26.3408 27.5732C27 27.5732 27.5981 27.7319 28.1353 28.0493C28.6724 28.3667 29.0589 28.7939 29.2949 29.3311H29.4048V27.8174H31.6387V33.75C31.6387 34.4743 31.7689 35.0236 32.0293 35.3979C32.2897 35.7723 32.6356 35.9595 33.0669 35.9595C33.4575 35.9595 33.7993 35.7967 34.0923 35.4712C34.3853 35.1457 34.6131 34.6737 34.7759 34.0552C34.9468 33.4367 35.0322 32.6799 35.0322 31.7847V31.7725C35.0322 30.2344 34.7067 28.9038 34.0557 27.7808C33.4046 26.6496 32.4891 25.7788 31.3091 25.1685C30.1372 24.5581 28.7619 24.2529 27.1831 24.2529C26.0112 24.2529 24.9329 24.4564 23.9482 24.8633C22.9717 25.262 22.1253 25.8358 21.4092 26.5845C20.693 27.325 20.1356 28.2121 19.7368 29.2456C19.3462 30.271 19.1509 31.4022 19.1509 32.6392V32.6636C19.1509 34.4377 19.513 35.9473 20.2373 37.1924C20.9697 38.4375 21.9788 39.3856 23.2646 40.0366C24.5505 40.6877 26.0356 41.0132 27.7202 41.0132C28.2329 41.0132 28.7375 40.9888 29.2339 40.9399C29.7384 40.8911 30.2064 40.8219 30.6377 40.7324C31.0771 40.6429 31.4515 40.5371 31.7607 40.415V42.2949C31.1748 42.4902 30.5278 42.6408 29.8198 42.7466C29.1118 42.8524 28.3672 42.9053 27.5859 42.9053ZM26.8657 35.8252C27.5981 35.8252 28.1759 35.5444 28.5991 34.9829C29.0304 34.4214 29.2461 33.6605 29.2461 32.7002V32.6758C29.2461 31.7236 29.0304 30.9709 28.5991 30.4175C28.1678 29.8641 27.5981 29.5874 26.8901 29.5874C26.41 29.5874 25.999 29.7135 25.6572 29.9658C25.3154 30.21 25.0509 30.564 24.8638 31.0278C24.6847 31.4836 24.5952 32.0369 24.5952 32.688V32.7002C24.5952 33.3512 24.6847 33.9087 24.8638 34.3726C25.0509 34.8364 25.3154 35.1945 25.6572 35.4468C25.999 35.6991 26.4019 35.8252 26.8657 35.8252Z" fill="white"/>
</svg>
