<svg width="618" height="62" viewBox="0 0 618 62" fill="none" xmlns="http://www.w3.org/2000/svg">
<rect x="0.5" y="0.5" width="617" height="61" rx="19.5" fill="#0B0B0B" stroke="#393939"/>
<path d="M25.999 46.1279L24.0093 44.4067C23.814 44.2358 23.6756 44.0283 23.5942 43.7842C23.5129 43.54 23.4722 43.304 23.4722 43.0762V31.6626C22.4793 31.2069 21.6208 30.5924 20.8965 29.8193C20.1722 29.0462 19.6107 28.1673 19.2119 27.1826C18.8213 26.1898 18.626 25.144 18.626 24.0454C18.626 22.8898 18.8416 21.8075 19.2729 20.7983C19.7043 19.7811 20.3024 18.89 21.0674 18.125C21.8324 17.36 22.7194 16.766 23.7285 16.3428C24.7458 15.9115 25.8363 15.6958 27 15.6958C28.1556 15.6958 29.238 15.9115 30.2471 16.3428C31.2643 16.7741 32.1554 17.3722 32.9204 18.1372C33.6854 18.9022 34.2835 19.7933 34.7148 20.8105C35.1543 21.8197 35.374 22.8979 35.374 24.0454C35.374 25.6567 34.9305 27.1257 34.0435 28.4521C33.1564 29.7786 31.895 30.8569 30.2593 31.687L32.6152 34.0552C32.8919 34.34 33.0303 34.6737 33.0303 35.0562C33.0303 35.4386 32.8919 35.7682 32.6152 36.0449L30.0151 38.645L31.7485 40.3784C32.0252 40.6551 32.1676 40.9847 32.1758 41.3672C32.1839 41.7497 32.0456 42.0833 31.7607 42.3682L27.9888 46.1401C27.7039 46.4168 27.3784 46.547 27.0122 46.5308C26.646 46.5145 26.3083 46.3802 25.999 46.1279ZM27 43.7964L29.417 41.355L27.8301 39.8047V37.4609L30.2715 35.0684L27.9766 32.7612V30.0024C28.9775 29.7909 29.8564 29.3962 30.6133 28.8184C31.3783 28.2406 31.9683 27.5407 32.3833 26.7188C32.8065 25.8887 33.0181 24.9976 33.0181 24.0454C33.0181 22.9386 32.7454 21.9336 32.2002 21.0303C31.6631 20.1188 30.9388 19.3945 30.0273 18.8574C29.1159 18.3203 28.1068 18.0518 27 18.0518C26.1618 18.0518 25.3765 18.2064 24.644 18.5156C23.9198 18.8249 23.2809 19.2562 22.7275 19.8096C22.1742 20.3548 21.7428 20.9896 21.4336 21.7139C21.1243 22.4382 20.9697 23.2153 20.9697 24.0454C20.9697 25.0138 21.1732 25.909 21.5801 26.731C21.987 27.5448 22.5444 28.2365 23.2524 28.8062C23.9686 29.3677 24.7824 29.7461 25.6938 29.9414V42.5024L27 43.7964ZM27 23.7524C26.4548 23.7524 25.9909 23.5612 25.6084 23.1787C25.2259 22.7881 25.0347 22.3201 25.0347 21.7749C25.0347 21.2297 25.2259 20.7658 25.6084 20.3833C25.9909 20.0008 26.4548 19.8096 27 19.8096C27.5452 19.8096 28.0091 20.0008 28.3916 20.3833C28.7741 20.7658 28.9653 21.2297 28.9653 21.7749C28.9653 22.3201 28.7741 22.7881 28.3916 23.1787C28.0091 23.5612 27.5452 23.7524 27 23.7524Z" fill="white"/>
</svg>
