<svg width="618" height="124" viewBox="0 0 618 124" fill="none" xmlns="http://www.w3.org/2000/svg">
<rect x="0.5" y="0.5" width="617" height="123" rx="19.5" fill="#0B0B0B" stroke="#393939" stroke-dasharray="16 16"/>
<path d="M21.5479 73.6611C19.4076 73.6611 18.3374 72.9246 18.3374 71.4517C18.3374 70.5972 18.5938 69.7142 19.1064 68.8027C19.6191 67.8831 20.3475 67.0327 21.2915 66.2515C22.2437 65.4702 23.3789 64.8395 24.6973 64.3594C26.0238 63.8711 27.4967 63.627 29.1162 63.627C30.7438 63.627 32.2168 63.8711 33.5352 64.3594C34.8617 64.8395 35.9969 65.4702 36.9409 66.2515C37.8931 67.0327 38.6255 67.8831 39.1382 68.8027C39.6509 69.7142 39.9072 70.5972 39.9072 71.4517C39.9072 72.9246 38.8371 73.6611 36.6968 73.6611H21.5479ZM21.2793 71.3418H36.9653C37.0955 71.3418 37.1851 71.3174 37.2339 71.2686C37.2909 71.2279 37.3193 71.1546 37.3193 71.0488C37.3193 70.6012 37.1362 70.0885 36.77 69.5107C36.4119 68.9329 35.883 68.3755 35.1831 67.8384C34.4832 67.2931 33.6247 66.8415 32.6074 66.4834C31.5902 66.1253 30.4264 65.9463 29.1162 65.9463C27.8141 65.9463 26.6504 66.1253 25.625 66.4834C24.6077 66.8415 23.7492 67.2931 23.0493 67.8384C22.3494 68.3755 21.8164 68.9329 21.4502 69.5107C21.0921 70.0885 20.9131 70.6012 20.9131 71.0488C20.9131 71.1546 20.9416 71.2279 20.9985 71.2686C21.0555 71.3174 21.1491 71.3418 21.2793 71.3418ZM29.1162 62.2598C28.1234 62.2598 27.2201 61.9993 26.4062 61.4785C25.5924 60.9577 24.9414 60.2578 24.4531 59.3789C23.973 58.4919 23.7329 57.5153 23.7329 56.4492C23.7329 55.3913 23.9771 54.431 24.4653 53.5684C24.9536 52.6976 25.6047 52.0059 26.4185 51.4932C27.2323 50.9723 28.1315 50.7119 29.1162 50.7119C30.1172 50.7119 31.0246 50.9683 31.8384 51.481C32.6522 51.9937 33.2992 52.6813 33.7793 53.5439C34.2676 54.4066 34.5117 55.3669 34.5117 56.4248C34.5117 57.499 34.2676 58.4797 33.7793 59.3667C33.2992 60.2456 32.6522 60.9495 31.8384 61.4785C31.0246 61.9993 30.1172 62.2598 29.1162 62.2598ZM29.1162 59.9526C29.6696 59.9526 30.1701 59.8021 30.6177 59.501C31.0734 59.1917 31.4355 58.7686 31.7041 58.2314C31.9808 57.6943 32.1191 57.0921 32.1191 56.4248C32.1191 55.7738 31.9808 55.1919 31.7041 54.6792C31.4355 54.1665 31.0734 53.7637 30.6177 53.4707C30.1701 53.1696 29.6696 53.019 29.1162 53.019C28.5791 53.019 28.0827 53.1696 27.627 53.4707C27.1794 53.7637 26.8172 54.1706 26.5405 54.6914C26.2638 55.2041 26.1255 55.786 26.1255 56.437C26.1255 57.1125 26.2638 57.7147 26.5405 58.2437C26.8172 58.7726 27.1794 59.1917 27.627 59.501C28.0827 59.8021 28.5791 59.9526 29.1162 59.9526Z" fill="white"/>
<path d="M62.4048 71.3174C60.9237 71.3174 59.6419 71.0448 58.5596 70.4995C57.4772 69.9543 56.639 69.1934 56.0449 68.2168C55.459 67.2402 55.166 66.105 55.166 64.811V53.3853H58.3032V64.5547C58.3032 65.3604 58.4619 66.0684 58.7793 66.6787C59.1048 67.2809 59.5728 67.7529 60.1831 68.0947C60.7935 68.4284 61.5381 68.5952 62.417 68.5952C63.2878 68.5952 64.0283 68.4284 64.6387 68.0947C65.249 67.7529 65.7129 67.2809 66.0303 66.6787C66.3477 66.0684 66.5063 65.3604 66.5063 64.5547V53.3853H69.6436V64.811C69.6436 66.105 69.3506 67.2402 68.7646 68.2168C68.1787 69.1934 67.3446 69.9543 66.2622 70.4995C65.188 71.0448 63.9022 71.3174 62.4048 71.3174ZM72.5977 75.2969V57.9995H75.6372V60.2212H75.7227C75.9749 59.7085 76.2964 59.269 76.687 58.9028C77.0776 58.5366 77.5293 58.2559 78.042 58.0605C78.5628 57.8571 79.1284 57.7554 79.7388 57.7554C80.8455 57.7554 81.7977 58.028 82.5952 58.5732C83.4009 59.1104 84.0234 59.8835 84.4629 60.8926C84.9023 61.9017 85.1221 63.1021 85.1221 64.4937V64.5059C85.1221 65.8975 84.9023 67.0978 84.4629 68.1069C84.0234 69.116 83.4049 69.8932 82.6074 70.4385C81.8099 70.9837 80.8659 71.2563 79.7754 71.2563C79.165 71.2563 78.5954 71.1587 78.0664 70.9634C77.5456 70.7599 77.0858 70.4792 76.687 70.1211C76.2964 69.7549 75.9749 69.3195 75.7227 68.8149H75.6372V75.2969H72.5977ZM78.8354 68.6929C79.4946 68.6929 80.0602 68.526 80.5322 68.1924C81.0124 67.8506 81.3786 67.3664 81.6309 66.7397C81.8913 66.1131 82.0215 65.3685 82.0215 64.5059V64.4937C82.0215 63.6229 81.8913 62.8783 81.6309 62.2598C81.3786 61.6331 81.0124 61.153 80.5322 60.8193C80.0602 60.4775 79.4946 60.3066 78.8354 60.3066C78.2007 60.3066 77.6392 60.4775 77.1509 60.8193C76.6707 61.1611 76.2964 61.6453 76.0278 62.272C75.7593 62.8986 75.625 63.6392 75.625 64.4937V64.5181C75.625 65.3644 75.7593 66.1009 76.0278 66.7275C76.3045 67.3542 76.6829 67.8384 77.1631 68.1802C77.6432 68.522 78.2007 68.6929 78.8354 68.6929ZM87.3193 71V53.2632H90.3589V71H87.3193ZM98.8428 71.2563C97.5651 71.2563 96.4543 70.9878 95.5103 70.4507C94.5744 69.9054 93.846 69.1283 93.3252 68.1191C92.8125 67.11 92.5562 65.9056 92.5562 64.5059V64.4814C92.5562 63.0898 92.8166 61.8895 93.3374 60.8804C93.8582 59.8713 94.5907 59.0981 95.5347 58.561C96.4787 58.0158 97.5814 57.7432 98.8428 57.7432C100.104 57.7432 101.207 58.0158 102.151 58.561C103.095 59.0981 103.827 59.8713 104.348 60.8804C104.869 61.8813 105.129 63.0817 105.129 64.4814V64.5059C105.129 65.9056 104.869 67.11 104.348 68.1191C103.835 69.1283 103.107 69.9054 102.163 70.4507C101.227 70.9878 100.12 71.2563 98.8428 71.2563ZM98.855 68.8027C99.506 68.8027 100.068 68.6359 100.54 68.3022C101.012 67.9604 101.378 67.4722 101.638 66.8374C101.899 66.1945 102.029 65.4173 102.029 64.5059V64.4814C102.029 63.5781 101.899 62.8091 101.638 62.1743C101.378 61.5314 101.007 61.0431 100.527 60.7095C100.047 60.3677 99.4857 60.1968 98.8428 60.1968C98.1999 60.1968 97.6383 60.3677 97.1582 60.7095C96.6781 61.0513 96.3078 61.5396 96.0474 62.1743C95.7869 62.8091 95.6567 63.5781 95.6567 64.4814V64.5059C95.6567 65.4173 95.7869 66.1945 96.0474 66.8374C96.3078 67.4722 96.6781 67.9604 97.1582 68.3022C97.6383 68.6359 98.2039 68.8027 98.855 68.8027ZM111.025 71.2197C110.171 71.2197 109.414 71.057 108.755 70.7314C108.104 70.3978 107.595 69.938 107.229 69.3521C106.863 68.758 106.68 68.0744 106.68 67.3013V67.2769C106.68 66.5037 106.871 65.8405 107.253 65.2871C107.644 64.7337 108.206 64.2983 108.938 63.981C109.679 63.6554 110.57 63.4601 111.611 63.395L116.567 63.0898V65.104L112.051 65.3848C111.286 65.4336 110.704 65.6126 110.305 65.9219C109.906 66.2311 109.707 66.6421 109.707 67.1548V67.1792C109.707 67.7163 109.91 68.1395 110.317 68.4487C110.724 68.7498 111.261 68.9004 111.929 68.9004C112.515 68.9004 113.04 68.7824 113.503 68.5464C113.967 68.3104 114.333 67.9889 114.602 67.582C114.871 67.167 115.005 66.7031 115.005 66.1904V62.2598C115.005 61.6087 114.797 61.096 114.382 60.7217C113.975 60.3473 113.381 60.1602 112.6 60.1602C111.884 60.1602 111.31 60.3107 110.879 60.6118C110.448 60.9048 110.179 61.2873 110.073 61.7593L110.049 61.8569H107.217L107.229 61.7227C107.302 60.9577 107.567 60.2782 108.022 59.6841C108.478 59.0819 109.101 58.6099 109.89 58.2681C110.688 57.9181 111.628 57.7432 112.71 57.7432C113.8 57.7432 114.744 57.9222 115.542 58.2803C116.34 58.6302 116.954 59.1307 117.385 59.7817C117.825 60.4328 118.044 61.1937 118.044 62.0645V71H115.005V69.0347H114.919C114.675 69.4823 114.358 69.8729 113.967 70.2065C113.577 70.5321 113.133 70.7843 112.637 70.9634C112.14 71.1343 111.603 71.2197 111.025 71.2197ZM125.466 71.2563C124.376 71.2563 123.428 70.9837 122.622 70.4385C121.816 69.8932 121.194 69.116 120.754 68.1069C120.315 67.0897 120.095 65.8893 120.095 64.5059V64.4937C120.095 63.1021 120.315 61.9017 120.754 60.8926C121.194 59.8835 121.812 59.1104 122.61 58.5732C123.416 58.028 124.364 57.7554 125.454 57.7554C126.064 57.7554 126.63 57.853 127.151 58.0483C127.672 58.2437 128.132 58.5244 128.53 58.8906C128.937 59.2568 129.259 59.6963 129.495 60.209H129.58V53.2632H132.62V71H129.58V68.8149H129.495C129.259 69.3276 128.941 69.763 128.542 70.1211C128.152 70.4792 127.696 70.7599 127.175 70.9634C126.663 71.1587 126.093 71.2563 125.466 71.2563ZM126.382 68.6929C127.017 68.6929 127.574 68.522 128.054 68.1802C128.542 67.8384 128.921 67.3542 129.189 66.7275C129.458 66.1009 129.592 65.3604 129.592 64.5059V64.4937C129.592 63.6392 129.454 62.8986 129.177 62.272C128.909 61.6453 128.534 61.1611 128.054 60.8193C127.574 60.4775 127.017 60.3066 126.382 60.3066C125.731 60.3066 125.165 60.4775 124.685 60.8193C124.205 61.153 123.835 61.6331 123.574 62.2598C123.322 62.8783 123.196 63.6229 123.196 64.4937V64.5059C123.196 65.3685 123.322 66.1131 123.574 66.7397C123.835 67.3664 124.205 67.8506 124.685 68.1924C125.165 68.526 125.731 68.6929 126.382 68.6929ZM144.399 71.2197C143.545 71.2197 142.788 71.057 142.129 70.7314C141.478 70.3978 140.969 69.938 140.603 69.3521C140.237 68.758 140.054 68.0744 140.054 67.3013V67.2769C140.054 66.5037 140.245 65.8405 140.627 65.2871C141.018 64.7337 141.58 64.2983 142.312 63.981C143.053 63.6554 143.944 63.4601 144.985 63.395L149.941 63.0898V65.104L145.425 65.3848C144.66 65.4336 144.078 65.6126 143.679 65.9219C143.28 66.2311 143.081 66.6421 143.081 67.1548V67.1792C143.081 67.7163 143.285 68.1395 143.691 68.4487C144.098 68.7498 144.635 68.9004 145.303 68.9004C145.889 68.9004 146.414 68.7824 146.877 68.5464C147.341 68.3104 147.708 67.9889 147.976 67.582C148.245 67.167 148.379 66.7031 148.379 66.1904V62.2598C148.379 61.6087 148.171 61.096 147.756 60.7217C147.349 60.3473 146.755 60.1602 145.974 60.1602C145.258 60.1602 144.684 60.3107 144.253 60.6118C143.822 60.9048 143.553 61.2873 143.447 61.7593L143.423 61.8569H140.591L140.603 61.7227C140.676 60.9577 140.941 60.2782 141.396 59.6841C141.852 59.0819 142.475 58.6099 143.264 58.2681C144.062 57.9181 145.002 57.7432 146.084 57.7432C147.174 57.7432 148.118 57.9222 148.916 58.2803C149.714 58.6302 150.328 59.1307 150.759 59.7817C151.199 60.4328 151.418 61.1937 151.418 62.0645V71H148.379V69.0347H148.293C148.049 69.4823 147.732 69.8729 147.341 70.2065C146.951 70.5321 146.507 70.7843 146.011 70.9634C145.514 71.1343 144.977 71.2197 144.399 71.2197ZM161.16 65.1772V62.6382H165.627C166.759 62.6382 167.638 62.3493 168.264 61.7715C168.891 61.1855 169.204 60.3636 169.204 59.3057V59.2812C169.204 58.2152 168.891 57.3932 168.264 56.8154C167.638 56.2376 166.759 55.9487 165.627 55.9487H161.16V53.3853H166.409C167.597 53.3853 168.639 53.6294 169.534 54.1177C170.429 54.606 171.129 55.2936 171.633 56.1807C172.138 57.0596 172.39 58.089 172.39 59.269V59.2935C172.39 60.4653 172.138 61.4948 171.633 62.3818C171.129 63.2607 170.429 63.9484 169.534 64.4448C168.639 64.9331 167.597 65.1772 166.409 65.1772H161.16ZM159.585 71V53.3853H162.734V71H159.585ZM174.624 71V53.2632H177.664V60.1602H177.749C178.083 59.3952 178.587 58.8011 179.263 58.3779C179.938 57.9548 180.76 57.7432 181.729 57.7432C182.664 57.7432 183.474 57.9548 184.158 58.3779C184.841 58.793 185.366 59.383 185.732 60.1479C186.107 60.9129 186.294 61.8203 186.294 62.8701V71H183.254V63.4805C183.254 62.4795 183.018 61.7023 182.546 61.1489C182.074 60.5874 181.399 60.3066 180.52 60.3066C179.942 60.3066 179.438 60.4409 179.006 60.7095C178.583 60.978 178.254 61.3524 178.018 61.8325C177.782 62.3045 177.664 62.8579 177.664 63.4927V71H174.624ZM194.619 71.2563C193.341 71.2563 192.231 70.9878 191.287 70.4507C190.351 69.9054 189.622 69.1283 189.102 68.1191C188.589 67.11 188.333 65.9056 188.333 64.5059V64.4814C188.333 63.0898 188.593 61.8895 189.114 60.8804C189.635 59.8713 190.367 59.0981 191.311 58.561C192.255 58.0158 193.358 57.7432 194.619 57.7432C195.881 57.7432 196.983 58.0158 197.927 58.561C198.871 59.0981 199.604 59.8713 200.125 60.8804C200.645 61.8813 200.906 63.0817 200.906 64.4814V64.5059C200.906 65.9056 200.645 67.11 200.125 68.1191C199.612 69.1283 198.883 69.9054 197.939 70.4507C197.004 70.9878 195.897 71.2563 194.619 71.2563ZM194.631 68.8027C195.282 68.8027 195.844 68.6359 196.316 68.3022C196.788 67.9604 197.154 67.4722 197.415 66.8374C197.675 66.1945 197.805 65.4173 197.805 64.5059V64.4814C197.805 63.5781 197.675 62.8091 197.415 62.1743C197.154 61.5314 196.784 61.0431 196.304 60.7095C195.824 60.3677 195.262 60.1968 194.619 60.1968C193.976 60.1968 193.415 60.3677 192.935 60.7095C192.454 61.0513 192.084 61.5396 191.824 62.1743C191.563 62.8091 191.433 63.5781 191.433 64.4814V64.5059C191.433 65.4173 191.563 66.1945 191.824 66.8374C192.084 67.4722 192.454 67.9604 192.935 68.3022C193.415 68.6359 193.98 68.8027 194.631 68.8027ZM207.864 71.2319C206.497 71.2319 205.483 70.939 204.824 70.353C204.165 69.7671 203.835 68.8149 203.835 67.4966V60.3433H201.968V57.9995H203.835V54.728H206.924V57.9995H209.377V60.3433H206.924V67.1792C206.924 67.814 207.062 68.2575 207.339 68.5098C207.624 68.7539 208.047 68.876 208.608 68.876C208.763 68.876 208.901 68.8719 209.023 68.8638C209.146 68.8475 209.264 68.8353 209.377 68.8271V71.1099C209.198 71.1424 208.979 71.1709 208.718 71.1953C208.458 71.2197 208.173 71.2319 207.864 71.2319ZM217.08 71.2563C215.802 71.2563 214.692 70.9878 213.748 70.4507C212.812 69.9054 212.083 69.1283 211.562 68.1191C211.05 67.11 210.793 65.9056 210.793 64.5059V64.4814C210.793 63.0898 211.054 61.8895 211.575 60.8804C212.096 59.8713 212.828 59.0981 213.772 58.561C214.716 58.0158 215.819 57.7432 217.08 57.7432C218.341 57.7432 219.444 58.0158 220.388 58.561C221.332 59.0981 222.065 59.8713 222.585 60.8804C223.106 61.8813 223.367 63.0817 223.367 64.4814V64.5059C223.367 65.9056 223.106 67.11 222.585 68.1191C222.073 69.1283 221.344 69.9054 220.4 70.4507C219.465 70.9878 218.358 71.2563 217.08 71.2563ZM217.092 68.8027C217.743 68.8027 218.305 68.6359 218.777 68.3022C219.249 67.9604 219.615 67.4722 219.875 66.8374C220.136 66.1945 220.266 65.4173 220.266 64.5059V64.4814C220.266 63.5781 220.136 62.8091 219.875 62.1743C219.615 61.5314 219.245 61.0431 218.765 60.7095C218.285 60.3677 217.723 60.1968 217.08 60.1968C216.437 60.1968 215.876 60.3677 215.396 60.7095C214.915 61.0513 214.545 61.5396 214.285 62.1743C214.024 62.8091 213.894 63.5781 213.894 64.4814V64.5059C213.894 65.4173 214.024 66.1945 214.285 66.8374C214.545 67.4722 214.915 67.9604 215.396 68.3022C215.876 68.6359 216.441 68.8027 217.092 68.8027ZM226.699 71.1953C226.203 71.1953 225.78 71.0244 225.43 70.6826C225.088 70.3408 224.917 69.9176 224.917 69.4131C224.917 68.9167 225.088 68.4976 225.43 68.1558C225.78 67.8058 226.203 67.6309 226.699 67.6309C227.204 67.6309 227.627 67.8058 227.969 68.1558C228.319 68.4976 228.494 68.9167 228.494 69.4131C228.494 69.9176 228.319 70.3408 227.969 70.6826C227.627 71.0244 227.204 71.1953 226.699 71.1953Z" fill="#393939"/>
</svg>
