<svg width="67" height="54" viewBox="0 0 67 54" fill="none" xmlns="http://www.w3.org/2000/svg">
<path d="M12 0.5H55C61.3513 0.5 66.5 5.64873 66.5 12V42C66.5 48.3513 61.3513 53.5 55 53.5H12C5.64873 53.5 0.5 48.3513 0.5 42V12C0.5 5.64873 5.64873 0.5 12 0.5Z" fill="#0C0C0C"/>
<path d="M12 0.5H55C61.3513 0.5 66.5 5.64873 66.5 12V42C66.5 48.3513 61.3513 53.5 55 53.5H12C5.64873 53.5 0.5 48.3513 0.5 42V12C0.5 5.64873 5.64873 0.5 12 0.5Z" stroke="#393939"/>
<g clip-path="url(#clip0_334_35707)">
<path d="M26.3672 17.1597C25.6022 17.1597 24.9227 17.3387 24.3286 17.6968C23.7345 18.0549 23.2992 18.5269 23.0225 19.1128C23.055 17.7537 23.3927 16.7243 24.0356 16.0244C24.6704 15.3245 25.5005 14.9746 26.5259 14.9746L41.1255 14.9746C42.1509 14.9746 42.985 15.3245 43.6279 16.0244C44.2708 16.7243 44.6045 17.7537 44.6289 19.1128C44.3522 18.5269 43.9168 18.0549 43.3228 17.6968C42.7368 17.3387 42.0573 17.1597 41.2842 17.1597L26.3672 17.1597ZM24.6094 22.0303C23.8444 22.0303 23.1689 22.2093 22.583 22.5674C21.9889 22.9255 21.5535 23.4015 21.2769 23.9956C21.3013 22.6284 21.6349 21.5949 22.2778 20.895C22.9207 20.1951 23.7508 19.8452 24.7681 19.8452L42.8833 19.8452C43.9087 19.8452 44.7428 20.1951 45.3857 20.895C46.0286 21.5949 46.3582 22.6284 46.3745 23.9956C46.0978 23.4015 45.6665 22.9255 45.0806 22.5674C44.4946 22.2093 43.8151 22.0303 43.042 22.0303L24.6094 22.0303ZM20.1538 28.4512C20.1538 27.3525 20.4753 26.4696 21.1182 25.8022C21.7611 25.1349 22.6074 24.8013 23.6572 24.8013L43.9941 24.8013C45.0439 24.8013 45.8903 25.1349 46.5332 25.8022C47.1761 26.4696 47.4976 27.3525 47.4976 28.4512L47.4976 38.4609C47.4976 39.527 47.1761 40.3856 46.5332 41.0366C45.8903 41.6958 45.0439 42.0254 43.9941 42.0254H23.6694C22.6115 42.0254 21.7611 41.6958 21.1182 41.0366C20.4753 40.3856 20.1538 39.527 20.1538 38.4609V28.4512ZM22.9858 28.9761V37.8506C22.9858 38.3145 23.112 38.6725 23.3643 38.9248C23.6084 39.1852 23.9502 39.3154 24.3896 39.3154H43.2617C43.7093 39.3154 44.0552 39.1852 44.2993 38.9248C44.5435 38.6725 44.6655 38.3145 44.6655 37.8506L44.6655 28.9761C44.6655 28.5122 44.5435 28.1501 44.2993 27.8896C44.0552 27.6374 43.7093 27.5112 43.2617 27.5112L24.3896 27.5112C23.9421 27.5112 23.5962 27.6374 23.3521 27.8896C23.1079 28.1501 22.9858 28.5122 22.9858 28.9761Z" fill="#393939"/>
</g>
<defs>
<clipPath id="clip0_334_35707">
<rect x="50" y="5" width="49" height="32" rx="16" transform="rotate(90 50 5)" fill="white"/>
</clipPath>
</defs>
</svg>
