<svg width="67" height="54" viewBox="0 0 67 54" fill="none" xmlns="http://www.w3.org/2000/svg">
<path d="M12 0.5H55C61.3513 0.5 66.5 5.64873 66.5 12V42C66.5 48.3513 61.3513 53.5 55 53.5H12C5.64873 53.5 0.5 48.3513 0.5 42V12C0.5 5.64873 5.64873 0.5 12 0.5Z" fill="#0C0C0C"/>
<path d="M12 0.5H55C61.3513 0.5 66.5 5.64873 66.5 12V42C66.5 48.3513 61.3513 53.5 55 53.5H12C5.64873 53.5 0.5 48.3513 0.5 42V12C0.5 5.64873 5.64873 0.5 12 0.5Z" stroke="#393939"/>
<g clip-path="url(#clip0_334_35707)">
<path d="M43.9248 29.6279C43.9248 30.7428 43.758 31.7194 43.4243 32.5576C43.0907 33.3958 42.5495 34.1812 41.8008 34.9136C41.0602 35.6379 40.0796 36.3784 38.8589 37.1353C37.6382 37.9002 36.1449 38.7547 34.3789 39.6987C34.2243 39.7801 34.0656 39.8411 33.9028 39.8818C33.7482 39.9307 33.6139 39.9551 33.5 39.9551C33.3861 39.9551 33.2477 39.9307 33.085 39.8818C32.9303 39.8411 32.7716 39.7801 32.6089 39.6987C30.8429 38.7547 29.3496 37.9043 28.1289 37.1475C26.9163 36.3906 25.9357 35.6501 25.187 34.9258C24.4465 34.1934 23.9053 33.408 23.5635 32.5698C23.2298 31.7235 23.063 30.7428 23.063 29.6279L23.063 20.4849C23.063 19.6955 23.2135 19.1136 23.5146 18.7393C23.8239 18.3649 24.3122 18.0353 24.9795 17.7505C25.2318 17.6366 25.5939 17.4941 26.0659 17.3232C26.5461 17.1442 27.075 16.953 27.6528 16.7495C28.2388 16.5461 28.8166 16.3426 29.3862 16.1392C29.964 15.9357 30.4849 15.7526 30.9487 15.5898C31.4207 15.4271 31.7829 15.305 32.0352 15.2236C32.2712 15.1585 32.5153 15.1056 32.7676 15.0649C33.0199 15.0161 33.264 14.9917 33.5 14.9917C33.7279 14.9917 33.972 15.0161 34.2324 15.0649C34.4928 15.1138 34.737 15.1667 34.9648 15.2236C35.209 15.2969 35.5671 15.4149 36.0391 15.5776C36.5111 15.7323 37.036 15.9113 37.6138 16.1147C38.1916 16.3182 38.7653 16.5257 39.335 16.7373C39.9128 16.9408 40.4377 17.132 40.9097 17.311C41.3898 17.4901 41.7601 17.6366 42.0205 17.7505C42.696 18.0272 43.1802 18.3568 43.4731 18.7393C43.7743 19.1136 43.9248 19.6955 43.9248 20.4849V29.6279ZM33.3169 37.0864V17.5674C33.2355 17.5674 33.1541 17.5796 33.0728 17.604C32.9914 17.6203 32.8815 17.6528 32.7432 17.7017C32.4502 17.8156 32.0881 17.9539 31.6567 18.1167C31.2336 18.2713 30.7738 18.4382 30.2773 18.6172C29.7809 18.7962 29.2764 18.9753 28.7637 19.1543C28.251 19.3333 27.7586 19.5083 27.2866 19.6792C26.8228 19.842 26.4159 19.9884 26.0659 20.1187C25.8869 20.1838 25.7689 20.2733 25.7119 20.3872C25.6549 20.5011 25.6265 20.668 25.6265 20.8877L25.6265 29.1763C25.6265 30.047 25.7485 30.7876 25.9927 31.3979C26.2368 32.0083 26.6356 32.578 27.189 33.1069C27.7505 33.6278 28.491 34.1812 29.4106 34.7671C30.3384 35.353 31.4777 36.0488 32.8286 36.8545C32.9425 36.9277 33.0361 36.9806 33.1094 37.0132C33.1826 37.0457 33.2518 37.0701 33.3169 37.0864Z" fill="white"/>
</g>
<defs>
<clipPath id="clip0_334_35707">
<rect x="20" y="11" width="29" height="32" rx="14.5" fill="white"/>
</clipPath>
</defs>
</svg>
