<svg width="22" height="30" viewBox="0 0 22 30" fill="none" xmlns="http://www.w3.org/2000/svg">
<path d="M4.13818 29.3335C2.78727 29.3335 1.75781 28.9836 1.0498 28.2837C0.349935 27.592 0 26.5747 0 25.2319V11.438C0 10.0952 0.349935 9.07796 1.0498 8.38623C1.75781 7.68636 2.78727 7.33643 4.13818 7.33643H17.8589C19.2098 7.33643 20.2352 7.68636 20.9351 8.38623C21.6431 9.07796 21.9971 10.0952 21.9971 11.438V25.2319C21.9971 26.5666 21.6553 27.5838 20.9717 28.2837C20.2962 28.9836 19.3481 29.3335 18.1274 29.3335H4.13818ZM2.72217 5.41992C2.80355 4.81771 3.01107 4.34977 3.34473 4.01611C3.68652 3.68245 4.19922 3.51562 4.88281 3.51562H16.9556C17.6473 3.51562 18.16 3.68245 18.4937 4.01611C18.8354 4.34977 19.047 4.81771 19.1284 5.41992H2.72217ZM4.79736 1.75781C4.84619 1.18815 5.03743 0.752767 5.37109 0.45166C5.71289 0.150553 6.18896 0 6.79932 0H15.0513C15.6616 0 16.1336 0.150553 16.4673 0.45166C16.8091 0.752767 17.0044 1.18815 17.0532 1.75781H4.79736ZM14.8193 16.5771C15.1693 16.5039 15.4093 16.394 15.5396 16.2476C15.6698 16.1011 15.7349 15.8285 15.7349 15.4297V12.7686C15.7349 12.4756 15.6616 12.2721 15.5151 12.1582C15.3687 12.0443 15.1082 12.0321 14.7339 12.1216L10.7666 13.1104C10.4085 13.1999 10.1725 13.3138 10.0586 13.4521C9.9528 13.5905 9.8999 13.8672 9.8999 14.2822V20.1294C9.8999 20.4142 9.86735 20.6014 9.80225 20.6909C9.73714 20.7723 9.54183 20.8577 9.21631 20.9473L7.9834 21.2769C7.31608 21.4478 6.7627 21.7326 6.32324 22.1313C5.88379 22.5301 5.66406 23.055 5.66406 23.7061C5.66406 24.3164 5.87565 24.8128 6.29883 25.1953C6.72201 25.5778 7.27946 25.769 7.97119 25.769C8.96403 25.769 9.76562 25.4476 10.376 24.8047C10.9863 24.1699 11.2915 23.3561 11.2915 22.3633V17.981C11.2915 17.7531 11.3159 17.5985 11.3647 17.5171C11.4217 17.4357 11.5194 17.3828 11.6577 17.3584L14.8193 16.5771Z" fill="white"/>
</svg>
