<svg width="56" height="42" viewBox="0 0 56 42" fill="none" xmlns="http://www.w3.org/2000/svg">
<path d="M20.1396 35.8716C18.7887 35.8716 17.7593 35.5216 17.0513 34.8218C16.3514 34.13 16.0015 33.1128 16.0015 31.77V17.9761C16.0015 16.6333 16.3514 15.616 17.0513 14.9243C17.7593 14.2244 18.7887 13.8745 20.1396 13.8745H33.8604C35.2113 13.8745 36.2367 14.2244 36.9365 14.9243C37.6445 15.616 37.9985 16.6333 37.9985 17.9761V31.77C37.9985 33.1047 37.6567 34.1219 36.9731 34.8218C36.2977 35.5216 35.3496 35.8716 34.1289 35.8716H20.1396ZM18.7236 11.958C18.805 11.3558 19.0125 10.8879 19.3462 10.5542C19.688 10.2205 20.2007 10.0537 20.8843 10.0537H32.957C33.6488 10.0537 34.1615 10.2205 34.4951 10.5542C34.8369 10.8879 35.0485 11.3558 35.1299 11.958H18.7236ZM20.7988 8.2959C20.8477 7.72624 21.0389 7.29085 21.3726 6.98975C21.7144 6.68864 22.1904 6.53809 22.8008 6.53809H31.0527C31.6631 6.53809 32.1351 6.68864 32.4688 6.98975C32.8105 7.29085 33.0059 7.72624 33.0547 8.2959H20.7988ZM30.8208 23.1152C31.1707 23.042 31.4108 22.9321 31.541 22.7856C31.6712 22.6392 31.7363 22.3665 31.7363 21.9678V19.3066C31.7363 19.0137 31.6631 18.8102 31.5166 18.6963C31.3701 18.5824 31.1097 18.5701 30.7354 18.6597L26.7681 19.6484C26.41 19.738 26.174 19.8519 26.0601 19.9902C25.9543 20.1286 25.9014 20.4053 25.9014 20.8203V26.6675C25.9014 26.9523 25.8688 27.1395 25.8037 27.229C25.7386 27.3104 25.5433 27.3958 25.2178 27.4854L23.9849 27.8149C23.3175 27.9858 22.7642 28.2707 22.3247 28.6694C21.8853 29.0682 21.6655 29.5931 21.6655 30.2441C21.6655 30.8545 21.8771 31.3509 22.3003 31.7334C22.7235 32.1159 23.2809 32.3071 23.9727 32.3071C24.9655 32.3071 25.7671 31.9857 26.3774 31.3428C26.9878 30.708 27.293 29.8942 27.293 28.9014V24.519C27.293 24.2912 27.3174 24.1366 27.3662 24.0552C27.4232 23.9738 27.5208 23.9209 27.6592 23.8965L30.8208 23.1152Z" fill="white"/>
</svg>
