<svg width="56" height="42" viewBox="0 0 56 42" fill="none" xmlns="http://www.w3.org/2000/svg">
<path d="M20.1396 35.8716C18.7887 35.8716 17.7593 35.5216 17.0513 34.8218C16.3514 34.13 16.0015 33.1128 16.0015 31.77V17.9761C16.0015 16.6333 16.3514 15.616 17.0513 14.9243C17.7593 14.2244 18.7887 13.8745 20.1396 13.8745H33.8604C35.2113 13.8745 36.2367 14.2244 36.9365 14.9243C37.6445 15.616 37.9985 16.6333 37.9985 17.9761V31.77C37.9985 33.1047 37.6567 34.1219 36.9731 34.8218C36.2977 35.5216 35.3496 35.8716 34.1289 35.8716H20.1396ZM20.3594 33.1494H33.897C34.2957 33.1494 34.6253 33.0111 34.8857 32.7344C35.1543 32.4658 35.2886 32.0508 35.2886 31.4893V18.2568C35.2886 17.6953 35.1421 17.2762 34.8491 16.9995C34.5643 16.7228 34.1574 16.5845 33.6284 16.5845H20.3594C19.8223 16.5845 19.4113 16.7228 19.1265 16.9995C18.8498 17.2762 18.7114 17.6953 18.7114 18.2568V31.4893C18.7114 32.0508 18.8498 32.4658 19.1265 32.7344C19.4113 33.0111 19.8223 33.1494 20.3594 33.1494ZM18.7236 11.958C18.805 11.3558 19.0125 10.8879 19.3462 10.5542C19.688 10.2205 20.2007 10.0537 20.8843 10.0537H32.957C33.6488 10.0537 34.1615 10.2205 34.4951 10.5542C34.8369 10.8879 35.0485 11.3558 35.1299 11.958H18.7236ZM20.7988 8.2959C20.8477 7.72624 21.0389 7.29085 21.3726 6.98975C21.7144 6.68864 22.1904 6.53809 22.8008 6.53809H31.0527C31.6631 6.53809 32.1351 6.68864 32.4688 6.98975C32.8105 7.29085 33.0059 7.72624 33.0547 8.2959H20.7988ZM30.9429 22.688L27.9277 23.4204C27.7894 23.4448 27.6958 23.4977 27.647 23.5791C27.5981 23.6523 27.5737 23.7988 27.5737 24.0186V28.2178C27.5737 29.1699 27.2808 29.9512 26.6948 30.5615C26.1089 31.1719 25.3439 31.4771 24.3999 31.4771C23.7326 31.4771 23.1995 31.2939 22.8008 30.9277C22.402 30.5615 22.2026 30.0895 22.2026 29.5117C22.2026 28.8932 22.4102 28.3927 22.8252 28.0103C23.2484 27.6196 23.7773 27.347 24.4121 27.1924L25.5962 26.875C25.8973 26.7936 26.0804 26.7122 26.1455 26.6309C26.2188 26.5413 26.2554 26.3623 26.2554 26.0938V20.4907C26.2554 20.1001 26.3083 19.8397 26.4141 19.7095C26.5199 19.5711 26.7396 19.4613 27.0732 19.3799L30.8696 18.4399C31.2196 18.3423 31.4637 18.3504 31.6021 18.4644C31.7404 18.5701 31.8096 18.7655 31.8096 19.0503V21.5894C31.8096 21.9718 31.7485 22.2323 31.6265 22.3706C31.5044 22.509 31.2765 22.6147 30.9429 22.688Z" fill="#393939"/>
</svg>
