<svg width="56" height="42" viewBox="0 0 56 42" fill="none" xmlns="http://www.w3.org/2000/svg">
<path d="M19.4194 32.6611C17.2791 32.6611 16.209 31.9246 16.209 30.4517C16.209 29.5972 16.4653 28.7142 16.978 27.8027C17.4907 26.8831 18.2191 26.0327 19.1631 25.2515C20.1152 24.4702 21.2505 23.8395 22.5688 23.3594C23.8953 22.8711 25.3683 22.627 26.9878 22.627C28.6154 22.627 30.0884 22.8711 31.4067 23.3594C32.7332 23.8395 33.8685 24.4702 34.8125 25.2515C35.7646 26.0327 36.4971 26.8831 37.0098 27.8027C37.5225 28.7142 37.7788 29.5972 37.7788 30.4517C37.7788 31.9246 36.7087 32.6611 34.5684 32.6611H19.4194ZM19.1509 30.3418H34.8369C34.9671 30.3418 35.0566 30.3174 35.1055 30.2686C35.1624 30.2279 35.1909 30.1546 35.1909 30.0488C35.1909 29.6012 35.0078 29.0885 34.6416 28.5107C34.2835 27.9329 33.7546 27.3755 33.0547 26.8384C32.3548 26.2931 31.4963 25.8415 30.479 25.4834C29.4618 25.1253 28.298 24.9463 26.9878 24.9463C25.6857 24.9463 24.522 25.1253 23.4966 25.4834C22.4793 25.8415 21.6208 26.2931 20.9209 26.8384C20.221 27.3755 19.688 27.9329 19.3218 28.5107C18.9637 29.0885 18.7847 29.6012 18.7847 30.0488C18.7847 30.1546 18.8132 30.2279 18.8701 30.2686C18.9271 30.3174 19.0207 30.3418 19.1509 30.3418ZM26.9878 21.2598C25.995 21.2598 25.0916 20.9993 24.2778 20.4785C23.464 19.9577 22.813 19.2578 22.3247 18.3789C21.8446 17.4919 21.6045 16.5153 21.6045 15.4492C21.6045 14.3913 21.8486 13.431 22.3369 12.5684C22.8252 11.6976 23.4762 11.0059 24.29 10.4932C25.1038 9.97233 26.0031 9.71191 26.9878 9.71191C27.9888 9.71191 28.8962 9.96826 29.71 10.481C30.5238 10.9937 31.1707 11.6813 31.6509 12.5439C32.1392 13.4066 32.3833 14.3669 32.3833 15.4248C32.3833 16.499 32.1392 17.4797 31.6509 18.3667C31.1707 19.2456 30.5238 19.9495 29.71 20.4785C28.8962 20.9993 27.9888 21.2598 26.9878 21.2598ZM26.9878 18.9526C27.5412 18.9526 28.0417 18.8021 28.4893 18.501C28.945 18.1917 29.3071 17.7686 29.5757 17.2314C29.8524 16.6943 29.9907 16.0921 29.9907 15.4248C29.9907 14.7738 29.8524 14.1919 29.5757 13.6792C29.3071 13.1665 28.945 12.7637 28.4893 12.4707C28.0417 12.1696 27.5412 12.019 26.9878 12.019C26.4507 12.019 25.9543 12.1696 25.4985 12.4707C25.0509 12.7637 24.6888 13.1706 24.4121 13.6914C24.1354 14.2041 23.9971 14.786 23.9971 15.437C23.9971 16.1125 24.1354 16.7147 24.4121 17.2437C24.6888 17.7726 25.0509 18.1917 25.4985 18.501C25.9543 18.8021 26.4507 18.9526 26.9878 18.9526Z" fill="#393939"/>
</svg>
