<svg width="56" height="42" viewBox="0 0 56 42" fill="none" xmlns="http://www.w3.org/2000/svg">
<path d="M18.9189 32.2583C18.2109 32.2583 17.6535 32.0955 17.2466 31.77C16.8478 31.4526 16.6484 31.0132 16.6484 30.4517C16.6484 29.6704 16.8885 28.8485 17.3687 27.9858C17.8488 27.1232 18.5405 26.3175 19.4438 25.5688C20.3472 24.812 21.4336 24.1976 22.7031 23.7256C23.9808 23.2536 25.409 23.0176 26.9878 23.0176C28.5747 23.0176 30.0029 23.2536 31.2725 23.7256C32.5501 24.1976 33.6366 24.812 34.5317 25.5688C35.4351 26.3175 36.1268 27.1232 36.6069 27.9858C37.0952 28.8485 37.3394 29.6704 37.3394 30.4517C37.3394 31.0132 37.1359 31.4526 36.729 31.77C36.3302 32.0955 35.7769 32.2583 35.0688 32.2583H18.9189ZM27 20.8691C26.0967 20.8691 25.2707 20.6291 24.522 20.1489C23.7733 19.6606 23.1711 19.0096 22.7153 18.1958C22.2677 17.3739 22.0439 16.4543 22.0439 15.437C22.0439 14.4523 22.2677 13.5571 22.7153 12.7515C23.1711 11.9377 23.7733 11.2948 24.522 10.8228C25.2788 10.3426 26.1048 10.1025 27 10.1025C27.8952 10.1025 28.7171 10.3385 29.4658 10.8105C30.2145 11.2826 30.8167 11.9214 31.2725 12.7271C31.7282 13.5246 31.9561 14.4238 31.9561 15.4248C31.9561 16.4421 31.7282 17.3617 31.2725 18.1836C30.8249 19.0055 30.2227 19.6606 29.4658 20.1489C28.7171 20.6291 27.8952 20.8691 27 20.8691Z" fill="white"/>
</svg>
